<svg width="27" height="36" viewBox="0 0 27 36" fill="none" xmlns="http://www.w3.org/2000/svg">
<g clip-path="url(#clip0_263_742)">
<path d="M1.94116 23.8402C1.94116 30.5532 7.15544 36 13.5919 36H25.4879V2.1275H1.94116M10.7996 4.9021H15.1932V9.31074H11.6248C11.1698 9.31074 10.7996 8.92435 10.7996 8.4495V4.90676V4.9021ZM9.28753 14.6877H7.15544C6.06708 14.6877 5.18391 13.7659 5.18391 12.63V10.6003H9.28753V14.6877ZM9.28753 9.31074H5.18837V4.9021H9.29199V9.31074H9.28753ZM10.7996 10.6003H15.1932V14.6877H10.7996V10.6003ZM23.2666 33.0764H18.6143C17.6509 33.0764 16.8748 32.2617 16.8748 31.2608V22.4482H23.2666V33.0811V33.0764Z" fill="#00953E"/>
<path d="M26.282 2.43476L1.85651 3.19824C1.28111 3.21686 0.785997 2.78391 0.692327 2.19268L0.464844 0.712272L26.4648 0L26.282 2.43476Z" fill="#00953E"/>
<path d="M0.759277 0.856602C0.759277 0.856602 1.16072 0.837981 1.86993 0.805393C2.57914 0.777461 3.59167 0.740218 4.80491 0.69832C6.01816 0.656421 7.43658 0.609868 8.95314 0.563314C10.4697 0.521415 12.0888 0.479517 13.708 0.432963C15.3271 0.400376 16.9463 0.367788 18.4628 0.335201C19.9838 0.316579 21.3978 0.293302 22.6155 0.274681C23.8288 0.26537 24.8413 0.256059 25.5505 0.251404C26.2597 0.251404 26.175 0.251404 26.175 0.251404C26.175 0.251404 26.2597 0.26537 25.5505 0.297958C24.8457 0.32589 23.8332 0.367788 22.6155 0.414342C21.4023 0.45624 19.9838 0.498139 18.4673 0.544692C16.9507 0.581935 15.3316 0.628489 13.7124 0.670387C12.0933 0.702975 10.4697 0.735563 8.9576 0.763495C7.43658 0.786772 6.02262 0.805393 4.80491 0.824015C3.59167 0.833325 2.57914 0.842636 1.86993 0.847291C1.16072 0.851947 0.759277 0.851947 0.759277 0.851947V0.856602Z" fill="#00953E"/>
<path d="M2.03931 25.4556C2.03931 25.4556 2.49873 33.7887 11.9281 35.8789C10.1707 32.434 11.5133 25.9304 11.5133 25.9304L2.03931 25.4556Z" fill="#057C36"/>
</g>
<defs>
<clipPath id="clip0_263_742">
<rect width="26" height="36" fill="white" transform="translate(0.464844)"/>
</clipPath>
</defs>
</svg>
