<svg width="220" height="70" viewBox="0 0 220 70" fill="none" xmlns="http://www.w3.org/2000/svg">
<g filter="url(#filter0_d_121_527)">
<rect x="4" width="212" height="62" rx="10" fill="#057C36"/>
</g>
<path d="M19.6069 32.1533H21.1558L21.4795 38.3423H19.2832L19.6069 32.1533ZM21.5049 29.9824C21.5049 30.3802 21.397 30.6595 21.1812 30.8203C20.9653 30.9811 20.7008 31.0615 20.3877 31.0615C20.0915 31.0615 19.8333 30.9811 19.6133 30.8203C19.3932 30.6595 19.2832 30.3802 19.2832 29.9824C19.2832 29.5973 19.3932 29.3223 19.6133 29.1572C19.8333 28.988 20.0915 28.9033 20.3877 28.9033C20.7008 28.9033 20.9653 28.988 21.1812 29.1572C21.397 29.3223 21.5049 29.5973 21.5049 29.9824ZM31.8516 31.3472C31.8516 32.0369 31.769 32.6696 31.604 33.2451C31.4432 33.8164 31.1935 34.3115 30.855 34.7305C30.5164 35.1494 30.0869 35.4774 29.5664 35.7144L31.8008 38.209H29.2808L27.5796 36.127C27.55 36.127 27.5246 36.127 27.5034 36.127C27.4823 36.127 27.459 36.127 27.4336 36.127C26.6761 36.127 26.0202 36.0148 25.4658 35.7905C24.9115 35.562 24.4523 35.2362 24.0884 34.813C23.7287 34.3898 23.46 33.8841 23.2822 33.2959C23.1045 32.7077 23.0156 32.0539 23.0156 31.3345C23.0156 30.3739 23.1722 29.5381 23.4854 28.8271C23.8027 28.112 24.2894 27.5576 24.9453 27.1641C25.6012 26.7705 26.4349 26.5737 27.4463 26.5737C28.4535 26.5737 29.2808 26.7705 29.9282 27.1641C30.5799 27.5576 31.0623 28.112 31.3755 28.8271C31.6929 29.5423 31.8516 30.3823 31.8516 31.3472ZM25.0786 31.3472C25.0786 31.9946 25.159 32.5532 25.3198 33.0229C25.4849 33.4884 25.7409 33.8481 26.0879 34.1021C26.4349 34.3517 26.8835 34.4766 27.4336 34.4766C27.9922 34.4766 28.445 34.3517 28.792 34.1021C29.139 33.8481 29.3908 33.4884 29.5474 33.0229C29.7082 32.5532 29.7886 31.9946 29.7886 31.3472C29.7886 30.3739 29.6066 29.6079 29.2427 29.0493C28.8787 28.4907 28.2799 28.2114 27.4463 28.2114C26.8919 28.2114 26.4391 28.3384 26.0879 28.5923C25.7409 28.842 25.4849 29.2017 25.3198 29.6714C25.159 30.1369 25.0786 30.6955 25.0786 31.3472ZM40.1353 28.9033V36H38.6499L38.3896 35.0923H38.2881C38.1357 35.3335 37.9453 35.5303 37.7168 35.6826C37.4883 35.835 37.2365 35.9471 36.9614 36.019C36.6864 36.091 36.4007 36.127 36.1045 36.127C35.5967 36.127 35.1545 36.0381 34.7778 35.8604C34.4012 35.6784 34.1071 35.397 33.8955 35.0161C33.6882 34.6353 33.5845 34.1401 33.5845 33.5308V28.9033H35.5205V33.0483C35.5205 33.5562 35.6115 33.9391 35.7935 34.1973C35.9754 34.4554 36.2653 34.5845 36.6631 34.5845C37.0566 34.5845 37.3656 34.4956 37.5898 34.3179C37.8141 34.1359 37.9707 33.8714 38.0596 33.5244C38.1527 33.1732 38.1992 32.7458 38.1992 32.2422V28.9033H40.1353ZM44.1025 28.9033V36H42.1665V28.9033H44.1025ZM43.1377 26.123C43.4255 26.123 43.673 26.1908 43.8804 26.3262C44.0877 26.4574 44.1914 26.7049 44.1914 27.0688C44.1914 27.4285 44.0877 27.6782 43.8804 27.8179C43.673 27.9533 43.4255 28.021 43.1377 28.021C42.8457 28.021 42.596 27.9533 42.3887 27.8179C42.1855 27.6782 42.084 27.4285 42.084 27.0688C42.084 26.7049 42.1855 26.4574 42.3887 26.3262C42.596 26.1908 42.8457 26.123 43.1377 26.123ZM49.0664 28.77C49.7223 28.77 50.2873 28.897 50.7612 29.1509C51.2352 29.4006 51.6012 29.7645 51.8594 30.2427C52.1175 30.7209 52.2466 31.3049 52.2466 31.9946V32.9341H47.6699C47.6911 33.48 47.854 33.9095 48.1587 34.2227C48.4676 34.5316 48.895 34.686 49.4409 34.686C49.8937 34.686 50.3084 34.6395 50.6851 34.5464C51.0617 34.4533 51.4489 34.3136 51.8467 34.1274V35.6255C51.4954 35.799 51.1273 35.9259 50.7422 36.0063C50.3613 36.0868 49.8979 36.127 49.3521 36.127C48.6411 36.127 48.0106 35.9958 47.4604 35.7334C46.9146 35.471 46.485 35.0711 46.1719 34.5337C45.863 33.9963 45.7085 33.3192 45.7085 32.5024C45.7085 31.673 45.8481 30.9832 46.1274 30.4331C46.411 29.8787 46.8045 29.464 47.3081 29.189C47.8117 28.9097 48.3978 28.77 49.0664 28.77ZM49.0791 30.1475C48.7025 30.1475 48.3893 30.2681 48.1396 30.5093C47.8942 30.7505 47.7524 31.1292 47.7144 31.6455H50.4312C50.4269 31.3577 50.374 31.1017 50.2725 30.8774C50.1751 30.6532 50.027 30.4754 49.8281 30.3442C49.6335 30.2131 49.3838 30.1475 49.0791 30.1475ZM57.7817 28.77C57.8791 28.77 57.9912 28.7764 58.1182 28.7891C58.2493 28.7975 58.3551 28.8102 58.4355 28.8271L58.2896 30.6426C58.2261 30.6214 58.1351 30.6066 58.0166 30.5981C57.9023 30.5854 57.8029 30.5791 57.7183 30.5791C57.4686 30.5791 57.2253 30.6108 56.9883 30.6743C56.7555 30.7378 56.5461 30.8415 56.3599 30.9854C56.1737 31.125 56.0256 31.3112 55.9155 31.5439C55.8097 31.7725 55.7568 32.0539 55.7568 32.3882V36H53.8208V28.9033H55.2871L55.5728 30.0967H55.668C55.8076 29.8555 55.9811 29.6354 56.1885 29.4365C56.4001 29.2334 56.6392 29.0726 56.9058 28.9541C57.1766 28.8314 57.4686 28.77 57.7817 28.77ZM66.1733 32.439C66.1733 33.0314 66.0929 33.5562 65.9321 34.0132C65.7756 34.4702 65.5449 34.8574 65.2402 35.1748C64.9398 35.488 64.5758 35.7249 64.1484 35.8857C63.7253 36.0465 63.2471 36.127 62.7139 36.127C62.2145 36.127 61.7554 36.0465 61.3364 35.8857C60.9217 35.7249 60.5599 35.488 60.251 35.1748C59.9463 34.8574 59.7093 34.4702 59.54 34.0132C59.375 33.5562 59.2925 33.0314 59.2925 32.439C59.2925 31.6519 59.4321 30.9854 59.7114 30.4395C59.9907 29.8936 60.3885 29.4788 60.9048 29.1953C61.4211 28.9118 62.0368 28.77 62.752 28.77C63.4163 28.77 64.0046 28.9118 64.5166 29.1953C65.0329 29.4788 65.437 29.8936 65.729 30.4395C66.0252 30.9854 66.1733 31.6519 66.1733 32.439ZM61.2666 32.439C61.2666 32.9045 61.3174 33.2959 61.4189 33.6133C61.5205 33.9307 61.6792 34.1698 61.895 34.3306C62.1108 34.4914 62.3923 34.5718 62.7393 34.5718C63.082 34.5718 63.3592 34.4914 63.5708 34.3306C63.7866 34.1698 63.9432 33.9307 64.0405 33.6133C64.1421 33.2959 64.1929 32.9045 64.1929 32.439C64.1929 31.9692 64.1421 31.5799 64.0405 31.271C63.9432 30.9578 63.7866 30.723 63.5708 30.5664C63.355 30.4098 63.0736 30.3315 62.7266 30.3315C62.2145 30.3315 61.8421 30.5072 61.6094 30.8584C61.3809 31.2096 61.2666 31.7365 61.2666 32.439ZM74.0317 36.127C73.3293 36.127 72.7305 36 72.2354 35.7461C71.7402 35.488 71.3636 35.0902 71.1055 34.5527C70.8473 34.0153 70.7183 33.3276 70.7183 32.4897C70.7183 31.6222 70.8643 30.9155 71.1562 30.3696C71.4525 29.8195 71.8608 29.4154 72.3813 29.1572C72.9061 28.8991 73.5133 28.77 74.2031 28.77C74.694 28.77 75.1172 28.8187 75.4727 28.916C75.8324 29.0091 76.1455 29.1213 76.4121 29.2524L75.8408 30.7505C75.5361 30.6278 75.2526 30.5283 74.9902 30.4521C74.7279 30.3717 74.4655 30.3315 74.2031 30.3315C73.8646 30.3315 73.5832 30.4119 73.3589 30.5728C73.1346 30.7293 72.9674 30.9663 72.8574 31.2837C72.7474 31.6011 72.6924 31.9989 72.6924 32.4771C72.6924 32.9468 72.7516 33.3361 72.8701 33.645C72.9886 33.9539 73.16 34.1846 73.3843 34.3369C73.6086 34.485 73.8815 34.5591 74.2031 34.5591C74.6051 34.5591 74.9627 34.5062 75.2759 34.4004C75.589 34.2904 75.8937 34.138 76.1899 33.9434V35.6001C75.8937 35.7863 75.5827 35.9196 75.2568 36C74.9352 36.0846 74.5269 36.127 74.0317 36.127ZM84.2896 32.439C84.2896 33.0314 84.2091 33.5562 84.0483 34.0132C83.8918 34.4702 83.6611 34.8574 83.3564 35.1748C83.056 35.488 82.6921 35.7249 82.2646 35.8857C81.8415 36.0465 81.3633 36.127 80.8301 36.127C80.3307 36.127 79.8716 36.0465 79.4526 35.8857C79.0379 35.7249 78.6761 35.488 78.3672 35.1748C78.0625 34.8574 77.8255 34.4702 77.6562 34.0132C77.4912 33.5562 77.4087 33.0314 77.4087 32.439C77.4087 31.6519 77.5483 30.9854 77.8276 30.4395C78.1069 29.8936 78.5047 29.4788 79.021 29.1953C79.5373 28.9118 80.153 28.77 80.8682 28.77C81.5326 28.77 82.1208 28.9118 82.6328 29.1953C83.1491 29.4788 83.5532 29.8936 83.8452 30.4395C84.1414 30.9854 84.2896 31.6519 84.2896 32.439ZM79.3828 32.439C79.3828 32.9045 79.4336 33.2959 79.5352 33.6133C79.6367 33.9307 79.7954 34.1698 80.0112 34.3306C80.2271 34.4914 80.5085 34.5718 80.8555 34.5718C81.1982 34.5718 81.4754 34.4914 81.687 34.3306C81.9028 34.1698 82.0594 33.9307 82.1567 33.6133C82.2583 33.2959 82.3091 32.9045 82.3091 32.439C82.3091 31.9692 82.2583 31.5799 82.1567 31.271C82.0594 30.9578 81.9028 30.723 81.687 30.5664C81.4712 30.4098 81.1898 30.3315 80.8428 30.3315C80.3307 30.3315 79.9583 30.5072 79.7256 30.8584C79.4971 31.2096 79.3828 31.7365 79.3828 32.439ZM89.9199 28.77C90.6774 28.77 91.2868 28.9774 91.748 29.3921C92.2093 29.8026 92.4399 30.4627 92.4399 31.3726V36H90.5039V31.855C90.5039 31.3472 90.4108 30.9642 90.2246 30.7061C90.0426 30.4479 89.7549 30.3188 89.3613 30.3188C88.7689 30.3188 88.3647 30.5199 88.1489 30.9219C87.9331 31.3239 87.8252 31.9036 87.8252 32.6611V36H85.8892V28.9033H87.3682L87.6284 29.811H87.7363C87.8887 29.5656 88.077 29.3667 88.3013 29.2144C88.5298 29.062 88.7816 28.9499 89.0566 28.8779C89.3359 28.806 89.6237 28.77 89.9199 28.77ZM100.882 32.439C100.882 33.0314 100.802 33.5562 100.641 34.0132C100.485 34.4702 100.254 34.8574 99.9492 35.1748C99.6488 35.488 99.2848 35.7249 98.8574 35.8857C98.4342 36.0465 97.9561 36.127 97.4229 36.127C96.9235 36.127 96.4644 36.0465 96.0454 35.8857C95.6307 35.7249 95.2689 35.488 94.96 35.1748C94.6553 34.8574 94.4183 34.4702 94.249 34.0132C94.084 33.5562 94.0015 33.0314 94.0015 32.439C94.0015 31.6519 94.1411 30.9854 94.4204 30.4395C94.6997 29.8936 95.0975 29.4788 95.6138 29.1953C96.13 28.9118 96.7458 28.77 97.4609 28.77C98.1253 28.77 98.7135 28.9118 99.2256 29.1953C99.7419 29.4788 100.146 29.8936 100.438 30.4395C100.734 30.9854 100.882 31.6519 100.882 32.439ZM95.9756 32.439C95.9756 32.9045 96.0264 33.2959 96.1279 33.6133C96.2295 33.9307 96.3882 34.1698 96.604 34.3306C96.8198 34.4914 97.1012 34.5718 97.4482 34.5718C97.791 34.5718 98.0682 34.4914 98.2798 34.3306C98.4956 34.1698 98.6522 33.9307 98.7495 33.6133C98.8511 33.2959 98.9019 32.9045 98.9019 32.439C98.9019 31.9692 98.8511 31.5799 98.7495 31.271C98.6522 30.9578 98.4956 30.723 98.2798 30.5664C98.064 30.4098 97.7826 30.3315 97.4355 30.3315C96.9235 30.3315 96.5511 30.5072 96.3184 30.8584C96.0898 31.2096 95.9756 31.7365 95.9756 32.439ZM105.364 36.127C104.661 36.127 104.062 36 103.567 35.7461C103.072 35.488 102.696 35.0902 102.438 34.5527C102.179 34.0153 102.05 33.3276 102.05 32.4897C102.05 31.6222 102.196 30.9155 102.488 30.3696C102.785 29.8195 103.193 29.4154 103.713 29.1572C104.238 28.8991 104.845 28.77 105.535 28.77C106.026 28.77 106.449 28.8187 106.805 28.916C107.164 29.0091 107.478 29.1213 107.744 29.2524L107.173 30.7505C106.868 30.6278 106.585 30.5283 106.322 30.4521C106.06 30.3717 105.798 30.3315 105.535 30.3315C105.197 30.3315 104.915 30.4119 104.691 30.5728C104.467 30.7293 104.299 30.9663 104.189 31.2837C104.079 31.6011 104.024 31.9989 104.024 32.4771C104.024 32.9468 104.084 33.3361 104.202 33.645C104.321 33.9539 104.492 34.1846 104.716 34.3369C104.941 34.485 105.214 34.5591 105.535 34.5591C105.937 34.5591 106.295 34.5062 106.608 34.4004C106.921 34.2904 107.226 34.138 107.522 33.9434V35.6001C107.226 35.7863 106.915 35.9196 106.589 36C106.267 36.0846 105.859 36.127 105.364 36.127ZM112.099 28.77C112.755 28.77 113.319 28.897 113.793 29.1509C114.267 29.4006 114.633 29.7645 114.892 30.2427C115.15 30.7209 115.279 31.3049 115.279 31.9946V32.9341H110.702C110.723 33.48 110.886 33.9095 111.191 34.2227C111.5 34.5316 111.927 34.686 112.473 34.686C112.926 34.686 113.341 34.6395 113.717 34.5464C114.094 34.4533 114.481 34.3136 114.879 34.1274V35.6255C114.528 35.799 114.16 35.9259 113.774 36.0063C113.394 36.0868 112.93 36.127 112.384 36.127C111.673 36.127 111.043 35.9958 110.493 35.7334C109.947 35.471 109.517 35.0711 109.204 34.5337C108.895 33.9963 108.741 33.3192 108.741 32.5024C108.741 31.673 108.88 30.9832 109.16 30.4331C109.443 29.8787 109.837 29.464 110.34 29.189C110.844 28.9097 111.43 28.77 112.099 28.77ZM112.111 30.1475C111.735 30.1475 111.422 30.2681 111.172 30.5093C110.926 30.7505 110.785 31.1292 110.747 31.6455H113.463C113.459 31.3577 113.406 31.1017 113.305 30.8774C113.207 30.6532 113.059 30.4754 112.86 30.3442C112.666 30.2131 112.416 30.1475 112.111 30.1475ZM120.814 28.77C120.911 28.77 121.023 28.7764 121.15 28.7891C121.282 28.7975 121.387 28.8102 121.468 28.8271L121.322 30.6426C121.258 30.6214 121.167 30.6066 121.049 30.5981C120.935 30.5854 120.835 30.5791 120.75 30.5791C120.501 30.5791 120.257 30.6108 120.021 30.6743C119.788 30.7378 119.578 30.8415 119.392 30.9854C119.206 31.125 119.058 31.3112 118.948 31.5439C118.842 31.7725 118.789 32.0539 118.789 32.3882V36H116.853V28.9033H118.319L118.605 30.0967H118.7C118.84 29.8555 119.013 29.6354 119.221 29.4365C119.432 29.2334 119.671 29.0726 119.938 28.9541C120.209 28.8314 120.501 28.77 120.814 28.77ZM128.069 36H126.133V26.123H128.069V36ZM133.014 28.7573C133.966 28.7573 134.696 28.9647 135.204 29.3794C135.712 29.7941 135.966 30.4246 135.966 31.271V36H134.614L134.239 35.0352H134.188C133.985 35.2891 133.778 35.4964 133.566 35.6572C133.355 35.818 133.111 35.9365 132.836 36.0127C132.561 36.0889 132.227 36.127 131.833 36.127C131.415 36.127 131.038 36.0465 130.704 35.8857C130.374 35.7249 130.113 35.4795 129.923 35.1494C129.732 34.8151 129.637 34.3919 129.637 33.8799C129.637 33.1266 129.902 32.5723 130.431 32.2168C130.96 31.8571 131.753 31.6582 132.811 31.6201L134.042 31.582V31.271C134.042 30.8986 133.945 30.6257 133.75 30.4521C133.556 30.2786 133.285 30.1919 132.938 30.1919C132.595 30.1919 132.259 30.2406 131.929 30.3379C131.599 30.4352 131.269 30.5579 130.938 30.7061L130.297 29.3984C130.674 29.1995 131.095 29.043 131.561 28.9287C132.03 28.8145 132.515 28.7573 133.014 28.7573ZM134.042 32.7119L133.293 32.7373C132.667 32.7542 132.231 32.8664 131.986 33.0737C131.745 33.2811 131.624 33.554 131.624 33.8926C131.624 34.1888 131.711 34.4004 131.884 34.5273C132.058 34.6501 132.284 34.7114 132.563 34.7114C132.978 34.7114 133.327 34.5887 133.611 34.3433C133.899 34.0978 134.042 33.7487 134.042 33.2959V32.7119ZM143.278 26.123V28.1353C143.278 28.4865 143.266 28.8208 143.24 29.1382C143.219 29.4556 143.202 29.6799 143.189 29.811H143.291C143.443 29.5656 143.623 29.3667 143.831 29.2144C144.042 29.062 144.275 28.9499 144.529 28.8779C144.783 28.806 145.056 28.77 145.348 28.77C145.86 28.77 146.306 28.861 146.687 29.043C147.068 29.2207 147.364 29.5021 147.576 29.8872C147.787 30.2681 147.893 30.7632 147.893 31.3726V36H145.957V31.855C145.957 31.3472 145.864 30.9642 145.678 30.7061C145.492 30.4479 145.204 30.3188 144.814 30.3188C144.425 30.3188 144.118 30.4098 143.894 30.5918C143.67 30.7695 143.511 31.034 143.418 31.3853C143.325 31.7323 143.278 32.1576 143.278 32.6611V36H141.342V26.123H143.278ZM151.822 28.9033V36H149.886V28.9033H151.822ZM150.857 26.123C151.145 26.123 151.393 26.1908 151.6 26.3262C151.807 26.4574 151.911 26.7049 151.911 27.0688C151.911 27.4285 151.807 27.6782 151.6 27.8179C151.393 27.9533 151.145 28.021 150.857 28.021C150.565 28.021 150.316 27.9533 150.108 27.8179C149.905 27.6782 149.804 27.4285 149.804 27.0688C149.804 26.7049 149.905 26.4574 150.108 26.3262C150.316 26.1908 150.565 26.123 150.857 26.123ZM158.811 33.8926C158.811 34.375 158.697 34.7834 158.468 35.1177C158.244 35.4478 157.908 35.6995 157.459 35.873C157.01 36.0423 156.452 36.127 155.783 36.127C155.288 36.127 154.863 36.0952 154.507 36.0317C154.156 35.9683 153.801 35.8625 153.441 35.7144V34.1147C153.826 34.2882 154.239 34.4321 154.679 34.5464C155.123 34.6564 155.512 34.7114 155.847 34.7114C156.223 34.7114 156.492 34.6564 156.653 34.5464C156.818 34.4321 156.9 34.284 156.9 34.1021C156.9 33.9836 156.867 33.8778 156.799 33.7847C156.735 33.6873 156.596 33.5794 156.38 33.4609C156.164 33.3382 155.826 33.1795 155.364 32.9849C154.92 32.7987 154.554 32.6104 154.266 32.4199C153.983 32.2295 153.771 32.0052 153.631 31.7471C153.496 31.4847 153.428 31.1525 153.428 30.7505C153.428 30.0946 153.682 29.6016 154.19 29.2715C154.702 28.9372 155.385 28.77 156.24 28.77C156.68 28.77 157.099 28.8145 157.497 28.9033C157.899 28.9922 158.312 29.134 158.735 29.3286L158.151 30.7251C157.8 30.5728 157.467 30.4479 157.154 30.3506C156.845 30.2533 156.53 30.2046 156.208 30.2046C155.925 30.2046 155.711 30.2427 155.567 30.3188C155.424 30.395 155.352 30.5114 155.352 30.668C155.352 30.7822 155.388 30.8838 155.459 30.9727C155.536 31.0615 155.68 31.161 155.891 31.271C156.107 31.3768 156.422 31.5143 156.837 31.6836C157.239 31.8486 157.588 32.0221 157.884 32.2041C158.181 32.3818 158.409 32.604 158.57 32.8706C158.731 33.133 158.811 33.4736 158.811 33.8926ZM163.312 34.5845C163.523 34.5845 163.728 34.5633 163.927 34.521C164.13 34.4787 164.331 34.4258 164.53 34.3623V35.8032C164.323 35.8963 164.065 35.9725 163.756 36.0317C163.451 36.0952 163.117 36.127 162.753 36.127C162.33 36.127 161.949 36.0592 161.61 35.9238C161.276 35.7842 161.012 35.5451 160.817 35.2065C160.626 34.8638 160.531 34.3877 160.531 33.7783V30.3569H159.604V29.5381L160.671 28.8906L161.229 27.3926H162.467V28.9033H164.454V30.3569H162.467V33.7783C162.467 34.0492 162.543 34.2523 162.696 34.3877C162.852 34.5189 163.058 34.5845 163.312 34.5845ZM172.42 32.439C172.42 33.0314 172.34 33.5562 172.179 34.0132C172.023 34.4702 171.792 34.8574 171.487 35.1748C171.187 35.488 170.823 35.7249 170.396 35.8857C169.972 36.0465 169.494 36.127 168.961 36.127C168.462 36.127 168.002 36.0465 167.583 35.8857C167.169 35.7249 166.807 35.488 166.498 35.1748C166.193 34.8574 165.956 34.4702 165.787 34.0132C165.622 33.5562 165.54 33.0314 165.54 32.439C165.54 31.6519 165.679 30.9854 165.958 30.4395C166.238 29.8936 166.636 29.4788 167.152 29.1953C167.668 28.9118 168.284 28.77 168.999 28.77C169.663 28.77 170.252 28.9118 170.764 29.1953C171.28 29.4788 171.684 29.8936 171.976 30.4395C172.272 30.9854 172.42 31.6519 172.42 32.439ZM167.514 32.439C167.514 32.9045 167.564 33.2959 167.666 33.6133C167.768 33.9307 167.926 34.1698 168.142 34.3306C168.358 34.4914 168.639 34.5718 168.986 34.5718C169.329 34.5718 169.606 34.4914 169.818 34.3306C170.034 34.1698 170.19 33.9307 170.288 33.6133C170.389 33.2959 170.44 32.9045 170.44 32.439C170.44 31.9692 170.389 31.5799 170.288 31.271C170.19 30.9578 170.034 30.723 169.818 30.5664C169.602 30.4098 169.321 30.3315 168.974 30.3315C168.462 30.3315 168.089 30.5072 167.856 30.8584C167.628 31.2096 167.514 31.7365 167.514 32.439ZM177.981 28.77C178.078 28.77 178.19 28.7764 178.317 28.7891C178.449 28.7975 178.554 28.8102 178.635 28.8271L178.489 30.6426C178.425 30.6214 178.334 30.6066 178.216 30.5981C178.102 30.5854 178.002 30.5791 177.917 30.5791C177.668 30.5791 177.424 30.6108 177.188 30.6743C176.955 30.7378 176.745 30.8415 176.559 30.9854C176.373 31.125 176.225 31.3112 176.115 31.5439C176.009 31.7725 175.956 32.0539 175.956 32.3882V36H174.02V28.9033H175.486L175.772 30.0967H175.867C176.007 29.8555 176.18 29.6354 176.388 29.4365C176.599 29.2334 176.838 29.0726 177.105 28.9541C177.376 28.8314 177.668 28.77 177.981 28.77ZM181.859 28.9033V36H179.923V28.9033H181.859ZM180.895 26.123C181.182 26.123 181.43 26.1908 181.637 26.3262C181.845 26.4574 181.948 26.7049 181.948 27.0688C181.948 27.4285 181.845 27.6782 181.637 27.8179C181.43 27.9533 181.182 28.021 180.895 28.021C180.603 28.021 180.353 27.9533 180.146 27.8179C179.942 27.6782 179.841 27.4285 179.841 27.0688C179.841 26.7049 179.942 26.4574 180.146 26.3262C180.353 26.1908 180.603 26.123 180.895 26.123ZM186.804 28.7573C187.756 28.7573 188.486 28.9647 188.994 29.3794C189.502 29.7941 189.756 30.4246 189.756 31.271V36H188.404L188.029 35.0352H187.979C187.775 35.2891 187.568 35.4964 187.356 35.6572C187.145 35.818 186.902 35.9365 186.626 36.0127C186.351 36.0889 186.017 36.127 185.624 36.127C185.205 36.127 184.828 36.0465 184.494 35.8857C184.164 35.7249 183.903 35.4795 183.713 35.1494C183.522 34.8151 183.427 34.3919 183.427 33.8799C183.427 33.1266 183.692 32.5723 184.221 32.2168C184.75 31.8571 185.543 31.6582 186.601 31.6201L187.833 31.582V31.271C187.833 30.8986 187.735 30.6257 187.541 30.4521C187.346 30.2786 187.075 30.1919 186.728 30.1919C186.385 30.1919 186.049 30.2406 185.719 30.3379C185.389 30.4352 185.059 30.5579 184.729 30.7061L184.087 29.3984C184.464 29.1995 184.885 29.043 185.351 28.9287C185.82 28.8145 186.305 28.7573 186.804 28.7573ZM187.833 32.7119L187.083 32.7373C186.457 32.7542 186.021 32.8664 185.776 33.0737C185.535 33.2811 185.414 33.554 185.414 33.8926C185.414 34.1888 185.501 34.4004 185.674 34.5273C185.848 34.6501 186.074 34.7114 186.354 34.7114C186.768 34.7114 187.117 34.5887 187.401 34.3433C187.689 34.0978 187.833 33.7487 187.833 33.2959V32.7119ZM193.38 32.9214H191.832L191.508 26.7197H193.704L193.38 32.9214ZM191.482 35.0923C191.482 34.6945 191.59 34.4152 191.806 34.2544C192.026 34.0936 192.291 34.0132 192.6 34.0132C192.9 34.0132 193.158 34.0936 193.374 34.2544C193.594 34.4152 193.704 34.6945 193.704 35.0923C193.704 35.4731 193.594 35.7482 193.374 35.9175C193.158 36.0868 192.9 36.1714 192.6 36.1714C192.291 36.1714 192.026 36.0868 191.806 35.9175C191.59 35.7482 191.482 35.4731 191.482 35.0923Z" fill="white"/>
<defs>
<filter id="filter0_d_121_527" x="0" y="0" width="220" height="70" filterUnits="userSpaceOnUse" color-interpolation-filters="sRGB">
<feFlood flood-opacity="0" result="BackgroundImageFix"/>
<feColorMatrix in="SourceAlpha" type="matrix" values="0 0 0 0 0 0 0 0 0 0 0 0 0 0 0 0 0 0 127 0" result="hardAlpha"/>
<feOffset dy="4"/>
<feGaussianBlur stdDeviation="2"/>
<feComposite in2="hardAlpha" operator="out"/>
<feColorMatrix type="matrix" values="0 0 0 0 0 0 0 0 0 0 0 0 0 0 0 0 0 0 0.25 0"/>
<feBlend mode="normal" in2="BackgroundImageFix" result="effect1_dropShadow_121_527"/>
<feBlend mode="normal" in="SourceGraphic" in2="effect1_dropShadow_121_527" result="shape"/>
</filter>
</defs>
</svg>
