<svg width="23" height="23" viewBox="0 0 23 23" fill="none" xmlns="http://www.w3.org/2000/svg">
<path d="M0.00778385 11.4088C0.00778385 8.80134 -0.0102594 6.19641 0.0129391 3.5889C0.0335599 1.16379 1.22184 0.0103231 3.68088 0.00775417C8.91342 4.72608e-05 14.1434 -0.00252171 19.3734 0.00775417C21.804 0.0128921 22.9872 1.20233 22.9923 3.63514C23.0026 8.89126 23.0026 14.1474 22.9923 19.4035C22.9872 21.6693 21.9381 22.8151 19.6852 22.9538C18.4042 23.0334 17.1128 22.9538 15.8291 22.9923C15.1847 23.0129 14.9089 22.8228 14.9244 22.1292C14.9708 19.9507 14.9888 17.7722 14.9605 15.5937C14.9502 14.8693 15.1719 14.5533 15.9039 14.6663C15.9451 14.6714 15.989 14.6663 16.0328 14.6663C18.3372 14.6226 18.6387 14.2784 18.5717 11.9226C18.5588 11.4345 18.3913 11.2033 17.917 11.1905C17.618 11.1828 17.3164 11.1905 17.0174 11.1828C14.646 11.1186 14.9502 11.6632 14.945 9.07879C14.9424 7.54512 15.342 7.22913 16.9942 7.17261C17.4608 7.1572 18.1722 7.47832 18.3397 6.81039C18.5459 5.99603 18.5356 5.12001 18.2933 4.28766C18.2624 4.1849 18.0175 4.11811 17.8603 4.07957C14.0145 3.15474 11.4189 5.20221 11.4137 9.15329C11.4137 9.41019 11.3802 9.67222 11.4189 9.92141C11.5787 10.9336 11.1688 11.3421 10.1558 11.1828C9.09901 11.0158 8.63504 11.4448 8.79227 12.5264C8.84125 12.8603 8.83094 13.2123 8.79227 13.5514C8.70206 14.3683 9.00879 14.8153 9.86456 14.656C11.2436 14.4017 11.5039 15.0388 11.4395 16.2719C11.339 18.1884 11.3853 20.1177 11.4266 22.0393C11.4421 22.7586 11.2204 23.0103 10.4806 22.9975C8.16591 22.9564 5.84864 23.0309 3.53653 22.9641C1.111 22.8973 0.0309823 21.7592 0.0129391 19.3572C-0.0102594 16.7086 0.00778385 14.0575 0.00778385 11.4088Z" fill="white"/>
</svg>
