<svg width="23" height="23" viewBox="0 0 23 23" fill="none" xmlns="http://www.w3.org/2000/svg">
<g clip-path="url(#clip0_187_495)">
<path d="M1.29846 6.38276C4.29054 0.0375028 13.1949 -2.0434 18.8096 2.27347C19.3587 2.69366 19.5691 3.0113 18.9225 3.4915C18.6864 3.66658 18.476 3.88167 18.2886 4.10677C17.1262 5.51238 16.1459 6.2352 13.9725 5.18974C10.5878 3.56153 7.05937 5.43985 5.19381 9.22149C3.80298 8.39363 2.54302 7.3982 1.29846 6.38026V6.38276Z" fill="white"/>
<path d="M5.12197 13.6084C7.21078 18.0553 11.0112 19.3834 15.7482 17.32C16.9594 18.2579 18.1732 19.1933 19.3844 20.1312C14.0264 25.1534 4.60618 23.3276 1.29077 16.6222C2.56613 15.6168 3.84405 14.6113 5.1194 13.6084H5.12197Z" fill="white"/>
<path d="M19.3869 20.1312C18.1757 19.1933 16.9619 18.2579 15.7507 17.32C16.6489 16.6072 17.4264 15.8218 17.8498 14.7214C18.1039 14.0636 18.0397 13.826 17.2673 13.8435C15.7738 13.8785 14.2804 13.821 12.7869 13.866C12.0684 13.8885 11.7912 13.6734 11.8349 12.9531C11.8887 12.0402 11.8887 11.1223 11.8349 10.2094C11.7938 9.51661 12.0966 9.38405 12.733 9.38905C15.8046 9.41406 18.8762 9.40406 21.9479 9.39655C22.4534 9.39655 22.8717 9.41156 22.9281 10.0643C23.254 13.926 22.4919 17.4175 19.3843 20.1287L19.3869 20.1312Z" fill="white"/>
<path d="M5.1219 13.6084C3.84655 14.6138 2.56863 15.6193 1.29328 16.6222C-0.418317 13.2082 -0.44911 9.79173 1.29841 6.38025C2.5404 7.40069 3.80036 8.39613 5.19119 9.22148C4.73699 10.6771 4.74212 12.1378 5.11934 13.6059L5.1219 13.6084Z" fill="white"/>
</g>
<defs>
<clipPath id="clip0_187_495">
<rect width="23" height="23" fill="white"/>
</clipPath>
</defs>
</svg>
