<svg width="24" height="31" viewBox="0 0 24 31" fill="none" xmlns="http://www.w3.org/2000/svg">
<g clip-path="url(#clip0_55_932)">
<path d="M1.36285 20.3083C1.36285 26.0268 6.17603 30.6667 12.1174 30.6667H23.0983V1.81232H1.36285M9.5399 4.17587H13.5955V7.93137H10.3016C9.88164 7.93137 9.5399 7.60222 9.5399 7.19772V4.17983V4.17587ZM8.14412 12.5117H6.17603C5.1714 12.5117 4.35616 11.7265 4.35616 10.7589V9.02987H8.14412V12.5117ZM8.14412 7.93137H4.36028V4.17587H8.14824V7.93137H8.14412ZM9.5399 9.02987H13.5955V12.5117H9.5399V9.02987ZM21.0479 28.1762H16.7535C15.8641 28.1762 15.1477 27.4822 15.1477 26.6296V19.1225H21.0479V28.1802V28.1762Z" fill="#00953E"/>
<path d="M23.8312 2.07405L1.28461 2.72443C0.753474 2.74029 0.296449 2.37148 0.209985 1.86784L0 0.60675L24 0L23.8312 2.07405Z" fill="#00953E"/>
<path d="M0.271729 0.729681C0.271729 0.729681 0.64229 0.713819 1.29695 0.686059C1.95161 0.662265 2.88624 0.630539 4.00616 0.594848C5.12608 0.559157 6.43539 0.5195 7.83529 0.479843C9.23519 0.444152 10.7298 0.408461 12.2244 0.368804C13.719 0.341044 15.2136 0.313284 16.6135 0.285524C18.0175 0.269661 19.3227 0.249833 20.4467 0.23397C21.5666 0.226039 22.5013 0.218108 23.1559 0.214142C23.8106 0.214142 23.7324 0.214142 23.7324 0.214142C23.7324 0.214142 23.8106 0.226039 23.1559 0.253799C22.5054 0.277593 21.5708 0.313284 20.4467 0.352941C19.3268 0.388632 18.0175 0.424323 16.6176 0.46398C15.2177 0.495706 13.7231 0.535363 12.2285 0.571054C10.7339 0.598814 9.23519 0.626573 7.83941 0.650367C6.43539 0.670196 5.1302 0.686059 4.00616 0.701921C2.88624 0.709853 1.95161 0.717784 1.29695 0.72175C0.64229 0.725716 0.271729 0.725716 0.271729 0.725716V0.729681Z" fill="#00953E"/>
<path d="M1.45343 21.6844C1.45343 21.6844 1.87752 28.783 10.5816 30.5636C8.95935 27.629 10.1987 22.0889 10.1987 22.0889L1.45343 21.6844Z" fill="#057C36"/>
</g>
<defs>
<clipPath id="clip0_55_932">
<rect width="24" height="30.6667" fill="white"/>
</clipPath>
</defs>
</svg>
