<svg width="24" height="24" viewBox="0 0 24 24" fill="none" xmlns="http://www.w3.org/2000/svg">
<g clip-path="url(#clip0_187_502)">
<path d="M18.4472 4.17554H18.4627C19.2527 4.17554 19.8955 4.81853 19.8877 5.62421C19.8877 6.4144 19.2294 7.0574 18.4318 7.0574C17.6341 7.04965 16.999 6.39891 17.0068 5.60872C17.0068 4.81079 17.6573 4.17554 18.4472 4.17554Z" fill="white"/>
<path d="M23.8528 6.02711C24.0309 7.91737 24.1471 16.8418 23.5895 18.9335C22.846 21.6682 21.057 23.2873 18.2923 23.7366C17.2545 23.907 14.4665 24.0077 11.6708 24.0077C8.87505 24.0077 5.96314 23.8993 5.00283 23.6514C2.28454 22.9464 0.658207 21.1724 0.224518 18.4145C-0.0930036 16.3848 -0.123981 6.97999 0.456851 4.9348C1.22355 2.2776 2.99703 0.712718 5.68434 0.271143C6.90022 0.0697224 9.28551 0 11.694 0C13.9322 0 16.1935 0.0619755 17.5566 0.131698C19.2061 0.216914 20.7085 0.751453 21.9399 1.92124C23.1093 3.0368 23.7056 4.43899 23.8528 6.01937V6.02711ZM21.5449 18.0194C21.8857 15.9122 21.8857 8.204 21.6921 6.22853C21.4752 4.12137 20.1897 2.72692 18.0987 2.40155C17.0687 2.24661 14.575 2.17689 12.0967 2.17689C9.61852 2.17689 7.32616 2.23886 6.28067 2.35507C4.18967 2.59522 2.78018 3.88896 2.44717 5.97289C2.10642 8.18076 2.10642 16.4312 2.36198 18.0891C2.62529 19.8167 3.60109 21.0019 5.32036 21.4822C6.24969 21.7456 9.03768 21.8386 11.7715 21.8386C14.2884 21.8386 16.7589 21.7611 17.6882 21.6604C19.8024 21.428 21.1964 20.1265 21.5295 18.0271" fill="white"/>
<path d="M12.0504 5.84889C15.4424 5.84889 18.1762 8.6068 18.153 12.0077C18.1297 15.4009 15.3495 18.1588 11.9497 18.1588C8.54988 18.1588 5.82384 15.4009 5.84707 12C5.8703 8.59905 8.65056 5.84115 12.0504 5.84889ZM11.9574 15.9819C14.1414 15.9819 15.9303 14.2233 15.969 12.0387C16.0078 9.83082 14.2575 8.04128 12.0581 8.01803C12.0426 8.01803 12.0349 8.01803 12.0194 8.01803C9.83545 8.01803 8.04649 9.77659 8.00777 11.9612C7.96905 14.1614 9.71929 15.9586 11.9187 15.9819C11.9342 15.9819 11.9419 15.9819 11.9574 15.9819Z" fill="white"/>
</g>
<defs>
<clipPath id="clip0_187_502">
<rect width="24" height="24" fill="white"/>
</clipPath>
</defs>
</svg>
