<svg width="115" height="28" viewBox="0 0 115 28" fill="none" xmlns="http://www.w3.org/2000/svg">
<path d="M0.249268 18.2046C0.249268 23.6123 4.66135 28 10.1076 28H20.1734V0.713837H0.249268M7.74489 2.94893H11.4625V6.50034H8.44313C8.05815 6.50034 7.74489 6.18907 7.74489 5.80656V2.95268V2.94893ZM6.46543 10.8318H4.66135C3.74043 10.8318 2.99313 10.0892 2.99313 9.1742V7.53913H6.46543V10.8318ZM6.46543 6.50034H2.99691V2.94893H6.4692V6.50034H6.46543ZM7.74489 7.53913H11.4625V10.8318H7.74489V7.53913ZM18.2939 25.6449H14.3573C13.5421 25.6449 12.8854 24.9886 12.8854 24.1823V17.0833H18.2939V25.6487V25.6449Z" fill="#00953E"/>
<path d="M36.1755 9.21205V19.9954C36.0778 20.0371 35.9312 20.0718 35.7358 20.0997C35.5544 20.1414 35.359 20.1622 35.1497 20.1622C34.7171 20.1622 34.41 20.0857 34.2286 19.9328C34.0472 19.7659 33.9565 19.4948 33.9565 19.1193V9.21205H30.2512C30.1814 9.11472 30.1186 8.98957 30.0628 8.83662C30.0209 8.68366 30 8.50985 30 8.31518C30 8.00927 30.0698 7.77984 30.2093 7.62688C30.3629 7.46002 30.5652 7.37659 30.8164 7.37659H39.9226C39.9784 7.46002 40.0273 7.57822 40.0691 7.73117C40.125 7.88412 40.1529 8.05098 40.1529 8.23175C40.1529 8.88528 39.8807 9.21205 39.3365 9.21205H36.1755Z" fill="#00953E"/>
<path d="M45.0937 18.6396C45.5822 18.6396 46.0078 18.591 46.3707 18.4936C46.7335 18.3963 46.9917 18.292 47.1452 18.1808V15.5319L44.8635 15.7613C44.2215 15.8308 43.74 15.9768 43.419 16.1993C43.098 16.4079 42.9375 16.7346 42.9375 17.1796C42.9375 17.6385 43.112 18 43.4609 18.2642C43.8098 18.5145 44.3541 18.6396 45.0937 18.6396ZM45.0519 9.98378C46.3497 9.98378 47.3825 10.2688 48.15 10.8389C48.9176 11.3951 49.3014 12.2781 49.3014 13.4878V18.3476C49.3014 18.6674 49.2246 18.9177 49.0711 19.0985C48.9316 19.2654 48.7362 19.4253 48.485 19.5782C48.1221 19.7868 47.6546 19.9676 47.0824 20.1205C46.5102 20.2735 45.8473 20.3499 45.0937 20.3499C43.74 20.3499 42.6794 20.0857 41.9118 19.5574C41.1582 19.029 40.7814 18.2503 40.7814 17.2213C40.7814 16.3036 41.0744 15.6014 41.6606 15.1147C42.2607 14.628 43.119 14.3291 44.2354 14.2178L47.1452 13.9258V13.467C47.1452 12.8552 46.9429 12.4102 46.5382 12.1321C46.1474 11.854 45.5961 11.7149 44.8844 11.7149C44.3262 11.7149 43.7889 11.7914 43.2725 11.9444C42.7561 12.0973 42.2956 12.2711 41.8909 12.4658C41.7513 12.3546 41.6327 12.2225 41.535 12.0695C41.4373 11.9027 41.3884 11.7219 41.3884 11.5272C41.3884 11.2908 41.4443 11.0962 41.5559 10.9432C41.6815 10.7903 41.8699 10.6582 42.1211 10.5469C42.5119 10.3523 42.9585 10.2132 43.4609 10.1298C43.9633 10.0324 44.4936 9.98378 45.0519 9.98378Z" fill="#00953E"/>
<path d="M54.2782 19.9954C54.1805 20.0371 54.041 20.0718 53.8596 20.0997C53.6921 20.1414 53.5037 20.1622 53.2944 20.1622C52.8896 20.1622 52.5896 20.0857 52.3942 19.9328C52.1988 19.7798 52.1011 19.5226 52.1011 19.1611V12.3198C52.1011 11.9722 52.1709 11.6941 52.3105 11.4855C52.45 11.263 52.6733 11.0545 52.9803 10.8598C53.3851 10.6095 53.9014 10.4009 54.5294 10.2341C55.1575 10.0672 55.8483 9.98378 56.6019 9.98378C57.83 9.98378 58.4441 10.3314 58.4441 11.0267C58.4441 11.1935 58.4161 11.3534 58.3603 11.5064C58.3045 11.6454 58.2417 11.7706 58.1719 11.8818C58.0324 11.854 57.8579 11.8262 57.6486 11.7984C57.4392 11.7706 57.2159 11.7567 56.9787 11.7567C56.4205 11.7567 55.9111 11.8192 55.4505 11.9444C54.99 12.0556 54.5992 12.2016 54.2782 12.3824V19.9954Z" fill="#00953E"/>
<path d="M68.7839 23.8331C68.6862 23.8749 68.5466 23.9096 68.3652 23.9374C68.1838 23.9791 67.9884 24 67.779 24C67.3743 24 67.0743 23.9235 66.8789 23.7706C66.6835 23.6176 66.5858 23.3534 66.5858 22.978V19.8285C66.3067 19.9676 65.9857 20.0857 65.6229 20.1831C65.26 20.2804 64.8413 20.3291 64.3668 20.3291C63.6551 20.3291 62.9992 20.2317 62.3991 20.0371C61.8129 19.8285 61.3035 19.5156 60.8709 19.0985C60.4383 18.6674 60.0963 18.1321 59.8451 17.4925C59.6079 16.8389 59.4893 16.0742 59.4893 15.1981C59.4893 14.3221 59.6149 13.5574 59.8661 12.9038C60.1312 12.2503 60.4941 11.708 60.9546 11.2769C61.4152 10.8459 61.9595 10.5261 62.5875 10.3175C63.2294 10.095 63.9272 9.98378 64.6808 9.98378C65.3926 9.98378 66.0346 10.0742 66.6067 10.2549C67.1929 10.4218 67.6674 10.6165 68.0302 10.8389C68.2675 10.9919 68.4489 11.1657 68.5745 11.3604C68.7141 11.555 68.7839 11.7984 68.7839 12.0904V23.8331ZM64.6808 18.5562C65.0716 18.5562 65.4275 18.5006 65.7485 18.3893C66.0834 18.2781 66.3695 18.139 66.6067 17.9722V12.2364C66.3974 12.1112 66.1322 12 65.8113 11.9027C65.5042 11.7914 65.1484 11.7358 64.7436 11.7358C64.311 11.7358 63.9133 11.8053 63.5504 11.9444C63.1876 12.0695 62.8666 12.2711 62.5875 12.5492C62.3223 12.8273 62.113 13.1889 61.9595 13.6338C61.8059 14.0649 61.7292 14.5863 61.7292 15.1981C61.7292 16.3801 61.9943 17.2352 62.5247 17.7636C63.055 18.292 63.7737 18.5562 64.6808 18.5562Z" fill="#00953E"/>
<path d="M71.6652 10.2966C71.7629 10.2688 71.9024 10.241 72.0839 10.2132C72.2653 10.1715 72.4607 10.1506 72.67 10.1506C73.0747 10.1506 73.3678 10.2271 73.5492 10.3801C73.7446 10.533 73.8423 10.7972 73.8423 11.1727V16.3244C73.8423 17.1309 74.0516 17.708 74.4703 18.0556C74.9029 18.3893 75.4961 18.5562 76.2497 18.5562C76.7381 18.5562 77.1498 18.5075 77.4848 18.4102C77.8197 18.3129 78.0849 18.2086 78.2803 18.0973V10.2966C78.3919 10.2688 78.5315 10.241 78.6989 10.2132C78.8804 10.1715 79.0757 10.1506 79.2851 10.1506C79.6898 10.1506 79.9898 10.2271 80.1852 10.3801C80.3806 10.533 80.4783 10.7972 80.4783 11.1727V18.2016C80.4783 18.5075 80.4295 18.7578 80.3318 18.9525C80.2341 19.1472 80.0387 19.3349 79.7456 19.5156C79.3828 19.7242 78.9013 19.9119 78.3012 20.0788C77.715 20.2457 77.0242 20.3291 76.2287 20.3291C74.7913 20.3291 73.6678 20.0162 72.8584 19.3905C72.0629 18.7509 71.6652 17.7428 71.6652 16.3662V10.2966Z" fill="#00953E"/>
<path d="M85.6404 19.9954C85.5427 20.0371 85.4032 20.0718 85.2218 20.0997C85.0543 20.1414 84.8589 20.1622 84.6356 20.1622C84.2309 20.1622 83.9308 20.0857 83.7355 19.9328C83.5401 19.7798 83.4424 19.5226 83.4424 19.1611V10.3384C83.554 10.3105 83.6936 10.2758 83.8611 10.2341C84.0425 10.1924 84.2448 10.1715 84.4681 10.1715C84.8729 10.1715 85.1659 10.248 85.3474 10.4009C85.5427 10.5539 85.6404 10.8181 85.6404 11.1935V19.9954ZM83.2121 7.27231C83.2121 6.91078 83.3377 6.61182 83.5889 6.37543C83.8401 6.12514 84.1611 6 84.5519 6C84.9426 6 85.2566 6.12514 85.4939 6.37543C85.7311 6.61182 85.8498 6.91078 85.8498 7.27231C85.8498 7.63384 85.7311 7.93975 85.4939 8.19003C85.2566 8.42642 84.9426 8.54461 84.5519 8.54461C84.1611 8.54461 83.8401 8.42642 83.5889 8.19003C83.3377 7.93975 83.2121 7.63384 83.2121 7.27231Z" fill="#00953E"/>
<path d="M95.248 13.7173C95.248 13.0359 95.0527 12.5353 94.6619 12.2155C94.2851 11.8957 93.7687 11.7358 93.1128 11.7358C92.6243 11.7358 92.1847 11.7984 91.794 11.9235C91.4172 12.0487 91.0892 12.1877 90.8101 12.3407V19.9954C90.7124 20.0371 90.5728 20.0718 90.3914 20.0997C90.2239 20.1414 90.0355 20.1622 89.8262 20.1622C89.4215 20.1622 89.1214 20.0857 88.926 19.9328C88.7307 19.7798 88.633 19.5226 88.633 19.1611V12.2781C88.633 11.9583 88.6958 11.701 88.8214 11.5064C88.947 11.3117 89.1563 11.117 89.4494 10.9224C89.8402 10.686 90.3495 10.4705 90.9775 10.2758C91.6056 10.0811 92.3173 9.98378 93.1128 9.98378C94.4665 9.98378 95.5271 10.2897 96.2947 10.9015C97.0623 11.4994 97.4461 12.4102 97.4461 13.6338V19.9954C97.3484 20.0371 97.2088 20.0718 97.0274 20.0997C96.846 20.1414 96.6506 20.1622 96.4413 20.1622C96.0365 20.1622 95.7365 20.0857 95.5411 19.9328C95.3457 19.7798 95.248 19.5226 95.248 19.1611V13.7173Z" fill="#00953E"/>
<path d="M102.608 19.9954C102.511 20.0371 102.371 20.0718 102.19 20.0997C102.022 20.1414 101.827 20.1622 101.603 20.1622C101.199 20.1622 100.899 20.0857 100.703 19.9328C100.508 19.7798 100.41 19.5226 100.41 19.1611V10.3384C100.522 10.3105 100.661 10.2758 100.829 10.2341C101.01 10.1924 101.213 10.1715 101.436 10.1715C101.841 10.1715 102.134 10.248 102.315 10.4009C102.511 10.5539 102.608 10.8181 102.608 11.1935V19.9954ZM100.18 7.27231C100.18 6.91078 100.305 6.61182 100.557 6.37543C100.808 6.12514 101.129 6 101.52 6C101.91 6 102.224 6.12514 102.462 6.37543C102.699 6.61182 102.818 6.91078 102.818 7.27231C102.818 7.63384 102.699 7.93975 102.462 8.19003C102.224 8.42642 101.91 8.54461 101.52 8.54461C101.129 8.54461 100.808 8.42642 100.557 8.19003C100.305 7.93975 100.18 7.63384 100.18 7.27231Z" fill="#00953E"/>
<path d="M115 15.1564C115 15.949 114.881 16.6651 114.644 17.3047C114.407 17.9444 114.072 18.4867 113.639 18.9316C113.221 19.3766 112.704 19.7242 112.09 19.9745C111.476 20.2109 110.792 20.3291 110.039 20.3291C109.285 20.3291 108.601 20.2109 107.987 19.9745C107.373 19.7242 106.85 19.3766 106.417 18.9316C105.998 18.4867 105.671 17.9444 105.433 17.3047C105.196 16.6651 105.077 15.949 105.077 15.1564C105.077 14.3638 105.196 13.6477 105.433 13.0081C105.671 12.3685 106.005 11.8262 106.438 11.3812C106.871 10.9363 107.394 10.5956 108.008 10.3592C108.622 10.1089 109.299 9.98378 110.039 9.98378C110.778 9.98378 111.455 10.1089 112.069 10.3592C112.683 10.5956 113.207 10.9432 113.639 11.4021C114.072 11.847 114.407 12.3893 114.644 13.029C114.881 13.6547 115 14.3638 115 15.1564ZM110.039 11.7358C109.201 11.7358 108.538 12.0348 108.05 12.6327C107.562 13.2306 107.317 14.0718 107.317 15.1564C107.317 16.241 107.555 17.0823 108.029 17.6802C108.504 18.2642 109.173 18.5562 110.039 18.5562C110.904 18.5562 111.574 18.2642 112.048 17.6802C112.523 17.0823 112.76 16.241 112.76 15.1564C112.76 14.0857 112.516 13.2514 112.027 12.6535C111.553 12.0417 110.89 11.7358 110.039 11.7358Z" fill="#00953E"/>
</svg>

