<svg width="112" height="125" viewBox="0 0 112 125" fill="none" xmlns="http://www.w3.org/2000/svg">
<g clip-path="url(#clip0_153_607)">
<path d="M111.78 100.2V97.96L109.52 98.25H74.7C56.67 98.25 42.68 84.76 41.95 65.68C41.95 65.68 41.52 63.57 40.92 60.65C40.36 55.66 39.34 51.84 37.55 45.21C37.35 44.41 37.18 43.78 37.06 43.39C35.43 37.32 33.43 31.4 30.31 25.97C30.07 25.53 29.83 25.11 29.58 24.71C29.43 24.47 29.39 24.06 29.51 23.8C29.55 23.71 29.61 23.64 29.65 23.56C29.75 23.38 29.85 23.19 29.97 23.03C30.03 22.94 30.11 22.86 30.18 22.78C30.29 22.64 30.4 22.49 30.53 22.36C30.62 22.27 30.72 22.2 30.81 22.11C30.93 22 31.05 21.88 31.18 21.78C31.41 21.6 31.66 21.44 31.92 21.29C32.68 20.85 33.46 20.53 34.27 20.31C35.07 20.09 35.9 19.97 36.74 19.93C37.02 19.92 37.3 19.91 37.58 19.92C37.86 19.92 38.15 19.94 38.43 19.95C39.04 19.99 39.63 20.06 40.21 20.15C40.21 20.15 40.22 20.15 40.23 20.15C40.81 20.24 41.38 20.36 41.94 20.5C44.94 21.26 47.63 22.77 49.87 25.3C50.79 26.33 51.47 27.59 52.26 28.73C52.27 28.67 52.31 28.54 52.31 28.41C52.59 23.66 50.93 19.76 47.37 16.8C45.66 15.38 43.84 14.41 41.94 13.82C40.62 13.41 39.27 13.18 37.88 13.11C37.83 13.11 37.77 13.11 37.72 13.11C37.44 13.1 37.17 13.09 36.89 13.09C36.8 13.09 36.72 13.09 36.63 13.09C36.38 13.09 36.13 13.1 35.88 13.12C35.78 13.12 35.68 13.12 35.58 13.14C35.33 13.16 35.08 13.18 34.83 13.2C34.73 13.2 34.64 13.22 34.54 13.23C34.2 13.27 33.86 13.31 33.51 13.37C31.99 13.61 30.5 14.08 28.95 14.45C29.03 14.36 29.1 14.27 29.18 14.2C31.69 11.75 34.75 10.57 38.13 10.26C38.78 10.2 39.42 10.18 40.06 10.18C40.69 10.18 41.32 10.21 41.94 10.26C46.05 10.61 49.88 12.14 53.47 14.65C53.51 14.61 53.46 14.66 53.5 14.62C50.93 10.6 47.53 7.83 43.29 6.4C42.76 6.22 42.23 6.06 41.67 5.92C36.21 4.57 31.44 5.71 27.21 8.91C26.23 9.65 25.29 10.5 24.37 11.45C24.87 8.79 25.88 6.65 27.62 4.92C28.08 4.46 28.57 4.05 29.07 3.68C29.32 3.49 29.58 3.32 29.85 3.15C31.17 2.32 32.61 1.72 34.1 1.22C34.94 0.940002 35.8 0.700002 36.65 0.440002L36.63 0.210002C35.83 0.170002 35.03 0.120002 34.23 0.0700024C33.43 0.0300024 32.63 2.41771e-06 31.83 0.0100024C31.18 0.0300024 30.53 0.0700024 29.89 0.160002C28.93 0.290002 28 0.510002 27.09 0.830002C26.18 1.15 25.31 1.58 24.47 2.14C23.7 2.65 23.03 3.23 22.45 3.86C20.71 5.76 19.78 8.19 19.43 10.97C19.4 11.18 19.37 11.41 19.34 11.66C19.33 11.74 19.32 11.82 19.31 11.91C18.32 10.8 17.2 9.91 16.03 9.21C13.68 7.81 11.09 7.17 8.74004 7.07C8.35004 7.05 7.96004 7.05 7.58004 7.07C5.31004 7.15 3.36004 7.74 2.18004 8.62C2.48004 8.62 2.78004 8.62 3.08004 8.62C4.27004 8.64 5.43004 8.74 6.53004 8.95C6.81004 9 7.08004 9.07 7.35004 9.13C7.89004 9.27 8.42004 9.44 8.94004 9.64C11 10.46 12.84 11.86 14.37 14.1C10.66 14.15 7.28004 14.97 4.51004 17.36C4.11004 17.7 3.73004 18.07 3.36004 18.48C2.94004 18.94 2.57004 19.43 2.23004 19.94C-0.119963 23.51 -0.449963 28.02 0.490037 30.22C2.09004 25.12 7.18004 21.97 11.53 20.84C12.62 20.56 13.66 20.4 14.59 20.37C14.9 20.36 15.2 20.37 15.48 20.38C15.35 20.43 15.24 20.48 15.14 20.52C15.04 20.56 14.95 20.6 14.86 20.63C13.9 21 13.04 21.45 12.26 21.98C11.49 22.51 10.81 23.12 10.24 23.8C10.05 24.03 9.87004 24.26 9.70004 24.5C9.36004 24.98 9.07004 25.5 8.82004 26.04C8.70004 26.31 8.58004 26.59 8.48004 26.87C8.08004 28.01 7.86004 29.26 7.84004 30.6C7.84004 31.27 7.87004 31.96 7.96004 32.67C8.47004 36.66 10.2 40.05 12.72 43.04C12.98 43.34 13.26 43.62 13.62 44.01C13.59 43.78 13.59 43.7 13.57 43.64C12.71 41.28 12.39 38.92 12.56 36.56C12.63 35.62 12.77 34.67 13 33.73C13.11 33.26 13.24 32.79 13.39 32.32C14.26 29.58 15.72 27.54 17.61 26.32C19.03 25.4 20.69 24.95 22.52 24.99C23.13 25 23.76 25.07 24.41 25.2C24.76 25.27 25.16 25.56 25.35 25.87C25.94 26.83 26.49 27.83 26.98 28.86C28.84 32.78 30.18 36.86 31.22 41.04C31.84 43.55 32.35 46.09 32.8 48.64C33.32 51.6 33.73 54.58 34.04 57.56C34.35 60.54 34.55 63.53 34.65 66.53C34.71 68.53 34.73 70.53 34.7 72.53C34.61 78.27 33.07 83.65 31.75 89.23C31.71 89.41 31.2 90.58 30.11 91.41C29.91 91.56 29 92.08 28.78 92.19C20.76 96.04 19.38 99.89 19.8 102.72C19.83 103.66 20.26 104.69 20.87 105.54C21.04 105.77 21.33 105.92 21.57 106.09C25.25 108.8 29.1 108.78 33.01 106.04C36.06 103.9 37.71 103.89 40.69 105.97C44.26 108.46 49.01 108.33 52.57 105.83C55.23 103.96 57.08 103.96 59.78 105.83C64.26 108.92 67.48 108.91 71.95 105.78C74.39 104.07 76.39 104.02 78.8 105.63C83.87 109.01 86.34 109 91.5 105.56C93.71 104.09 95.78 104.07 97.99 105.58C99.04 106.3 100.05 107.08 101.25 107.54C106.4 109.5 111.33 106.62 111.78 101.23C111.78 100.78 111.81 101.07 111.78 100.17V100.2Z" fill="#00953E"/>
<g clip-path="url(#clip1_153_607)">
<path d="M48.15 60.23C48.15 78.32 62.82 92.99 80.91 92.99H114.36V1.73H48.15M73.06 14.71H85.42V26.59H73.06V14.71ZM68.81 41.08H62.82C59.76 41.08 57.28 38.6 57.28 35.54V30.07H68.81V41.08ZM68.81 26.59H57.28V14.71H68.81V26.59ZM73.06 30.07H85.42V41.08H73.06V30.07ZM108.12 88.43H95.04C92.34 88.43 90.14 86.24 90.14 83.53V56.47H108.11V88.42L108.12 88.43Z" fill="#00953E"/>
<path d="M116.6 2.56L47.91 4.62C46.3 4.67 44.9 3.51 44.64 1.91L44 -2.08L117.11 -4L116.6 2.56Z" fill="#00953E"/>
<path d="M48.4301 64.57C48.4301 64.57 49.7201 87.01 76.2401 92.65C71.3001 83.36 75.0701 65.84 75.0701 65.84L48.4301 64.56V64.57Z" fill="#4CB169"/>
</g>
</g>
<path d="M111.03 112.355C109.58 116.575 106.06 117.735 102.2 115.695C101.54 115.345 100.95 114.865 100.34 114.445C97.48 112.475 94.83 112.495 92.04 114.505C88.12 117.325 85.27 117.375 81.33 114.665C78 112.385 75.86 112.395 72.49 114.735C68.91 117.215 65.88 117.255 62.3 114.875C58.48 112.335 56.83 112.325 53.12 114.855C49.59 117.255 46.48 117.235 42.92 114.775C39.41 112.355 37.53 112.345 33.92 114.785C31.65 116.325 29.28 117.105 26.5 116.265C24.91 115.775 24.16 114.815 24 113.265C24.46 112.855 24.74 113.235 25 113.415C27.71 115.265 30.34 114.995 32.92 113.155C36.77 110.415 39.88 110.365 43.66 112.965C47.07 115.325 49.22 115.275 52.66 112.785C55.66 110.615 59.45 110.325 62.3 112.545C65.73 115.205 68.81 115.255 72.27 112.605C75.19 110.375 78.92 110.585 81.91 112.705C85.63 115.345 87.5 115.355 91.27 112.775C94.47 110.585 97.99 110.315 100.89 112.565C104.23 115.165 107.36 115.385 111.02 112.345L111.03 112.355Z" fill="#00953E"/>
<g clip-path="url(#clip2_153_607)">
<path d="M106.2 123.97C104.39 125.05 103.1 123.86 101.8 123.02C100.6 122.25 99.49 121.37 98 121.19C95.86 120.92 94.06 121.64 92.35 122.89C88.9 125.41 85.92 125.4 82.43 122.96C78.86 120.46 76.66 120.47 73 122.98C69.49 125.39 66.6 125.37 63.04 122.91C59.49 120.47 57.35 120.47 53.82 122.91C50.22 125.4 47.29 125.39 43.68 122.85C40.36 120.52 37.96 120.53 34.62 122.82C33.27 123.75 31.97 124.96 30 124.03C32.37 123.59 33.92 121.74 35.98 120.82C38.62 119.64 41.21 119.91 43.66 121.54C48.14 124.52 49.55 124.5 54 121.51C56.79 119.64 60.04 119.64 62.84 121.5C67.34 124.49 68.8 124.5 73.18 121.55C76.05 119.62 79.45 119.45 82.2 121.59C85.8 124.38 89.05 124.23 92.6 121.53C95.41 119.39 98.5 119.59 101.42 121.49C102.92 122.47 104.28 123.66 106.19 123.96L106.2 123.97Z" fill="#00953E"/>
</g>
<defs>
<clipPath id="clip0_153_607">
<rect width="111.79" height="108.18" fill="white"/>
</clipPath>
<clipPath id="clip1_153_607">
<rect width="73.11" height="96.99" fill="white" transform="translate(44 -4)"/>
</clipPath>
<clipPath id="clip2_153_607">
<rect width="76.2" height="4.78" fill="white" transform="translate(30 120)"/>
</clipPath>
</defs>
</svg>
