<svg width="360" height="93" viewBox="0 0 360 93" fill="none" xmlns="http://www.w3.org/2000/svg">
<path d="M46.9648 76H42.1309V75.1357L43.9814 73.2607C44.3395 72.8962 44.6341 72.582 44.8652 72.3184C45.0964 72.0514 45.2673 71.7992 45.3779 71.5615C45.4919 71.3239 45.5488 71.0651 45.5488 70.7852C45.5488 70.4401 45.4495 70.1797 45.251 70.0039C45.0524 69.8249 44.7904 69.7354 44.4648 69.7354C44.1556 69.7354 43.8691 69.7972 43.6055 69.9209C43.3451 70.0413 43.0749 70.2139 42.7949 70.4385L42.165 69.6816C42.3636 69.5124 42.5752 69.3577 42.7998 69.2178C43.0277 69.0778 43.2816 68.9671 43.5615 68.8857C43.8415 68.8011 44.1605 68.7588 44.5186 68.7588C44.971 68.7588 45.3617 68.8402 45.6904 69.0029C46.0192 69.1624 46.2715 69.3854 46.4473 69.6719C46.6263 69.9583 46.7158 70.292 46.7158 70.6729C46.7158 71.057 46.6393 71.4118 46.4863 71.7373C46.3333 72.0628 46.1152 72.3851 45.832 72.7041C45.5488 73.0199 45.2119 73.3633 44.8213 73.7344L43.5859 74.9404V74.9941H46.9648V76ZM53.5957 70.4922C54.237 70.4922 54.7513 70.7266 55.1387 71.1953C55.5293 71.6641 55.7246 72.3607 55.7246 73.2852C55.7246 73.8971 55.6335 74.4131 55.4512 74.833C55.2721 75.2497 55.0199 75.5654 54.6943 75.7803C54.3721 75.9919 53.9961 76.0977 53.5664 76.0977C53.293 76.0977 53.0553 76.0618 52.8535 75.9902C52.6517 75.9186 52.4792 75.8258 52.3359 75.7119C52.1927 75.5947 52.0723 75.4678 51.9746 75.3311H51.9062C51.9225 75.4613 51.9372 75.6061 51.9502 75.7656C51.9665 75.9219 51.9746 76.0651 51.9746 76.1953V78.3975H50.8223V70.5947H51.7598L51.9209 71.3418H51.9746C52.0755 71.1888 52.1976 71.0472 52.3408 70.917C52.4873 70.7868 52.6631 70.6842 52.8682 70.6094C53.0765 70.5312 53.319 70.4922 53.5957 70.4922ZM53.2881 71.4297C52.9723 71.4297 52.7184 71.4932 52.5264 71.6201C52.3376 71.7438 52.1992 71.931 52.1113 72.1816C52.0267 72.4323 51.9811 72.7464 51.9746 73.124V73.2852C51.9746 73.6855 52.0153 74.0257 52.0967 74.3057C52.1813 74.5824 52.3197 74.7939 52.5117 74.9404C52.707 75.0837 52.9707 75.1553 53.3027 75.1553C53.5827 75.1553 53.8138 75.0788 53.9961 74.9258C54.1816 74.7728 54.32 74.5547 54.4111 74.2715C54.5023 73.9883 54.5479 73.6546 54.5479 73.2705C54.5479 72.6878 54.4437 72.2354 54.2354 71.9131C54.0303 71.5908 53.7145 71.4297 53.2881 71.4297ZM59.2061 70.4922C59.6878 70.4922 60.1012 70.5915 60.4463 70.79C60.7913 70.9886 61.0566 71.2702 61.2422 71.6348C61.4277 71.9993 61.5205 72.4355 61.5205 72.9434V73.5586H57.9121C57.9251 74.0827 58.0651 74.4863 58.332 74.7695C58.6022 75.0527 58.9798 75.1943 59.4648 75.1943C59.8099 75.1943 60.1191 75.1618 60.3926 75.0967C60.6693 75.0283 60.9541 74.929 61.2471 74.7988V75.7314C60.9769 75.8584 60.7018 75.9512 60.4219 76.0098C60.1419 76.0684 59.8066 76.0977 59.416 76.0977C58.8854 76.0977 58.4183 75.9951 58.0146 75.79C57.6143 75.5817 57.3001 75.2725 57.0723 74.8623C56.8477 74.4521 56.7354 73.9427 56.7354 73.334C56.7354 72.7285 56.8379 72.2142 57.043 71.791C57.248 71.3678 57.5361 71.0456 57.9072 70.8242C58.2783 70.6029 58.7113 70.4922 59.2061 70.4922ZM59.2061 71.3564C58.8447 71.3564 58.5518 71.4736 58.3271 71.708C58.1058 71.9424 57.9756 72.2858 57.9365 72.7383H60.3975C60.3942 72.4681 60.3486 72.2288 60.2607 72.0205C60.1761 71.8122 60.0459 71.6494 59.8701 71.5322C59.6976 71.415 59.4762 71.3564 59.2061 71.3564ZM65.5537 70.4922C65.6449 70.4922 65.7441 70.4971 65.8516 70.5068C65.959 70.5166 66.0518 70.5296 66.1299 70.5459L66.0225 71.6201C65.9541 71.6006 65.8695 71.5859 65.7686 71.5762C65.6709 71.5664 65.583 71.5615 65.5049 71.5615C65.2998 71.5615 65.1045 71.5957 64.9189 71.6641C64.7334 71.7292 64.569 71.8301 64.4258 71.9668C64.2826 72.1003 64.1702 72.2679 64.0889 72.4697C64.0075 72.6715 63.9668 72.9059 63.9668 73.1729V76H62.8145V70.5947H63.7129L63.8691 71.5469H63.9229C64.0303 71.3548 64.1637 71.179 64.3232 71.0195C64.4827 70.86 64.665 70.7331 64.8701 70.6387C65.0785 70.541 65.3063 70.4922 65.5537 70.4922ZM70.7637 74.457C70.7637 74.8118 70.6774 75.1113 70.5049 75.3555C70.3324 75.5996 70.0801 75.7852 69.748 75.9121C69.4193 76.0358 69.0156 76.0977 68.5371 76.0977C68.1595 76.0977 67.834 76.07 67.5605 76.0146C67.2904 75.9626 67.0348 75.8812 66.7939 75.7705V74.7793C67.0511 74.8997 67.3392 75.0039 67.6582 75.0918C67.9805 75.1797 68.2848 75.2236 68.5713 75.2236C68.9489 75.2236 69.2207 75.165 69.3867 75.0479C69.5527 74.9274 69.6357 74.7679 69.6357 74.5693C69.6357 74.4521 69.6016 74.348 69.5332 74.2568C69.4681 74.1624 69.3444 74.0664 69.1621 73.9688C68.9831 73.8678 68.7194 73.7474 68.3711 73.6074C68.0293 73.4707 67.7412 73.334 67.5068 73.1973C67.2725 73.0605 67.0951 72.8962 66.9746 72.7041C66.8542 72.5088 66.7939 72.2598 66.7939 71.957C66.7939 71.4785 66.9827 71.1156 67.3604 70.8682C67.7412 70.6175 68.2441 70.4922 68.8691 70.4922C69.2012 70.4922 69.5137 70.5264 69.8066 70.5947C70.1029 70.6598 70.3926 70.7559 70.6758 70.8828L70.3145 71.7471C70.0703 71.6396 69.8245 71.5518 69.5771 71.4834C69.333 71.4118 69.084 71.376 68.8301 71.376C68.5339 71.376 68.3076 71.4215 68.1514 71.5127C67.9984 71.6038 67.9219 71.734 67.9219 71.9033C67.9219 72.0303 67.9593 72.1377 68.0342 72.2256C68.109 72.3135 68.2376 72.4014 68.4199 72.4893C68.6055 72.5771 68.8626 72.6862 69.1914 72.8164C69.5137 72.9401 69.792 73.0703 70.0264 73.207C70.264 73.3405 70.4463 73.5049 70.5732 73.7002C70.7002 73.8955 70.7637 74.1478 70.7637 74.457ZM76.7891 73.2852C76.7891 73.7344 76.7305 74.1331 76.6133 74.4814C76.4961 74.8298 76.3252 75.1243 76.1006 75.3652C75.876 75.6029 75.6058 75.7852 75.29 75.9121C74.9743 76.0358 74.6178 76.0977 74.2207 76.0977C73.8496 76.0977 73.5094 76.0358 73.2002 75.9121C72.891 75.7852 72.6224 75.6029 72.3945 75.3652C72.1699 75.1243 71.9958 74.8298 71.8721 74.4814C71.7484 74.1331 71.6865 73.7344 71.6865 73.2852C71.6865 72.6895 71.7891 72.1849 71.9941 71.7715C72.2025 71.3548 72.4987 71.0374 72.8828 70.8193C73.2669 70.6012 73.7243 70.4922 74.2549 70.4922C74.7529 70.4922 75.1924 70.6012 75.5732 70.8193C75.9541 71.0374 76.252 71.3548 76.4668 71.7715C76.6816 72.1882 76.7891 72.6927 76.7891 73.2852ZM72.8682 73.2852C72.8682 73.679 72.9154 74.016 73.0098 74.2959C73.1074 74.5758 73.2572 74.7907 73.459 74.9404C73.6608 75.0869 73.9212 75.1602 74.2402 75.1602C74.5592 75.1602 74.8197 75.0869 75.0215 74.9404C75.2233 74.7907 75.3714 74.5758 75.4658 74.2959C75.5602 74.016 75.6074 73.679 75.6074 73.2852C75.6074 72.8913 75.5602 72.5576 75.4658 72.2842C75.3714 72.0075 75.2233 71.7975 75.0215 71.6543C74.8197 71.5078 74.5576 71.4346 74.2354 71.4346C73.7601 71.4346 73.4134 71.5941 73.1953 71.9131C72.9772 72.2321 72.8682 72.6895 72.8682 73.2852ZM80.9248 70.4922C81.5335 70.4922 82.0072 70.6501 82.3457 70.9658C82.6875 71.2783 82.8584 71.7812 82.8584 72.4746V76H81.7109V72.6895C81.7109 72.2695 81.6247 71.9554 81.4521 71.7471C81.2796 71.5355 81.0127 71.4297 80.6514 71.4297C80.1273 71.4297 79.7627 71.5908 79.5576 71.9131C79.3558 72.2354 79.2549 72.7025 79.2549 73.3145V76H78.1074V70.5947H79.001L79.1621 71.3271H79.2256C79.3428 71.1383 79.4876 70.9837 79.6602 70.8633C79.8359 70.7396 80.0312 70.6468 80.2461 70.585C80.4642 70.5231 80.6904 70.4922 80.9248 70.4922ZM86.584 70.4922C87.2676 70.4922 87.7835 70.6436 88.1318 70.9463C88.4834 71.249 88.6592 71.721 88.6592 72.3623V76H87.8438L87.624 75.2334H87.585C87.432 75.4287 87.2741 75.5898 87.1113 75.7168C86.9486 75.8438 86.7598 75.9382 86.5449 76C86.3333 76.0651 86.0745 76.0977 85.7686 76.0977C85.4463 76.0977 85.1582 76.0391 84.9043 75.9219C84.6504 75.8014 84.4502 75.6191 84.3037 75.375C84.1572 75.1309 84.084 74.8216 84.084 74.4473C84.084 73.8906 84.2907 73.4723 84.7041 73.1924C85.1208 72.9124 85.749 72.7578 86.5889 72.7285L87.5264 72.6943V72.4111C87.5264 72.0368 87.4385 71.7699 87.2627 71.6104C87.0902 71.4508 86.846 71.3711 86.5303 71.3711C86.2601 71.3711 85.998 71.4102 85.7441 71.4883C85.4902 71.5664 85.2428 71.6624 85.002 71.7764L84.6309 70.9658C84.8945 70.8258 85.194 70.7119 85.5293 70.624C85.8678 70.5361 86.2194 70.4922 86.584 70.4922ZM87.5215 73.417L86.8232 73.4414C86.2503 73.4609 85.8483 73.5586 85.6172 73.7344C85.3861 73.9102 85.2705 74.151 85.2705 74.457C85.2705 74.724 85.3503 74.9193 85.5098 75.043C85.6693 75.1634 85.8792 75.2236 86.1396 75.2236C86.5368 75.2236 86.8656 75.1113 87.126 74.8867C87.3896 74.6589 87.5215 74.3252 87.5215 73.8857V73.417ZM93.8984 74.457C93.8984 74.8118 93.8122 75.1113 93.6396 75.3555C93.4671 75.5996 93.2148 75.7852 92.8828 75.9121C92.554 76.0358 92.1504 76.0977 91.6719 76.0977C91.2943 76.0977 90.9688 76.07 90.6953 76.0146C90.4251 75.9626 90.1696 75.8812 89.9287 75.7705V74.7793C90.1859 74.8997 90.474 75.0039 90.793 75.0918C91.1152 75.1797 91.4196 75.2236 91.7061 75.2236C92.0837 75.2236 92.3555 75.165 92.5215 75.0479C92.6875 74.9274 92.7705 74.7679 92.7705 74.5693C92.7705 74.4521 92.7363 74.348 92.668 74.2568C92.6029 74.1624 92.4792 74.0664 92.2969 73.9688C92.1178 73.8678 91.8542 73.7474 91.5059 73.6074C91.1641 73.4707 90.876 73.334 90.6416 73.1973C90.4072 73.0605 90.2298 72.8962 90.1094 72.7041C89.9889 72.5088 89.9287 72.2598 89.9287 71.957C89.9287 71.4785 90.1175 71.1156 90.4951 70.8682C90.876 70.6175 91.3789 70.4922 92.0039 70.4922C92.3359 70.4922 92.6484 70.5264 92.9414 70.5947C93.2376 70.6598 93.5273 70.7559 93.8105 70.8828L93.4492 71.7471C93.2051 71.6396 92.9593 71.5518 92.7119 71.4834C92.4678 71.4118 92.2188 71.376 91.9648 71.376C91.6686 71.376 91.4424 71.4215 91.2861 71.5127C91.1331 71.6038 91.0566 71.734 91.0566 71.9033C91.0566 72.0303 91.0941 72.1377 91.1689 72.2256C91.2438 72.3135 91.3724 72.4014 91.5547 72.4893C91.7402 72.5771 91.9974 72.6862 92.3262 72.8164C92.6484 72.9401 92.9268 73.0703 93.1611 73.207C93.3988 73.3405 93.5811 73.5049 93.708 73.7002C93.835 73.8955 93.8984 74.1478 93.8984 74.457Z" fill="#057C36"/>
<path d="M131.606 76H130.454V71.4053C130.454 71.2523 130.456 71.0993 130.459 70.9463C130.462 70.7933 130.465 70.6436 130.469 70.4971C130.475 70.3506 130.483 70.2106 130.493 70.0771C130.425 70.152 130.34 70.2334 130.239 70.3213C130.142 70.4092 130.037 70.5003 129.927 70.5947L129.106 71.249L128.53 70.5215L130.649 68.8613H131.606V76ZM139.102 76.0977C138.59 76.0977 138.148 75.9984 137.773 75.7998C137.399 75.6012 137.111 75.2969 136.909 74.8867C136.707 74.4766 136.606 73.9557 136.606 73.3242C136.606 72.6667 136.717 72.1296 136.938 71.7129C137.16 71.2962 137.466 70.9886 137.856 70.79C138.25 70.5915 138.701 70.4922 139.209 70.4922C139.531 70.4922 139.823 70.5247 140.083 70.5898C140.347 70.6517 140.57 70.7282 140.752 70.8193L140.41 71.7373C140.212 71.6559 140.008 71.5876 139.8 71.5322C139.591 71.4769 139.391 71.4492 139.199 71.4492C138.883 71.4492 138.62 71.5192 138.408 71.6592C138.2 71.7992 138.044 72.0075 137.939 72.2842C137.839 72.5609 137.788 72.9043 137.788 73.3145C137.788 73.7116 137.84 74.0469 137.944 74.3203C138.049 74.5905 138.203 74.7956 138.408 74.9355C138.613 75.0723 138.866 75.1406 139.165 75.1406C139.461 75.1406 139.727 75.1048 139.961 75.0332C140.195 74.9616 140.417 74.8688 140.625 74.7549V75.751C140.42 75.8682 140.2 75.9544 139.966 76.0098C139.731 76.0684 139.443 76.0977 139.102 76.0977ZM144.014 70.4922C144.697 70.4922 145.213 70.6436 145.562 70.9463C145.913 71.249 146.089 71.721 146.089 72.3623V76H145.273L145.054 75.2334H145.015C144.862 75.4287 144.704 75.5898 144.541 75.7168C144.378 75.8438 144.189 75.9382 143.975 76C143.763 76.0651 143.504 76.0977 143.198 76.0977C142.876 76.0977 142.588 76.0391 142.334 75.9219C142.08 75.8014 141.88 75.6191 141.733 75.375C141.587 75.1309 141.514 74.8216 141.514 74.4473C141.514 73.8906 141.72 73.4723 142.134 73.1924C142.55 72.9124 143.179 72.7578 144.019 72.7285L144.956 72.6943V72.4111C144.956 72.0368 144.868 71.7699 144.692 71.6104C144.52 71.4508 144.276 71.3711 143.96 71.3711C143.69 71.3711 143.428 71.4102 143.174 71.4883C142.92 71.5664 142.673 71.6624 142.432 71.7764L142.061 70.9658C142.324 70.8258 142.624 70.7119 142.959 70.624C143.298 70.5361 143.649 70.4922 144.014 70.4922ZM144.951 73.417L144.253 73.4414C143.68 73.4609 143.278 73.5586 143.047 73.7344C142.816 73.9102 142.7 74.151 142.7 74.457C142.7 74.724 142.78 74.9193 142.939 75.043C143.099 75.1634 143.309 75.2236 143.569 75.2236C143.966 75.2236 144.295 75.1113 144.556 74.8867C144.819 74.6589 144.951 74.3252 144.951 73.8857V73.417ZM153.804 70.4922C154.409 70.4922 154.865 70.6484 155.171 70.9609C155.48 71.2734 155.635 71.7747 155.635 72.4648V76H154.487V72.6699C154.487 72.2598 154.408 71.9505 154.248 71.7422C154.089 71.5339 153.846 71.4297 153.521 71.4297C153.065 71.4297 152.736 71.5762 152.534 71.8691C152.336 72.1589 152.236 72.5804 152.236 73.1338V76H151.089V72.6699C151.089 72.3965 151.053 72.1686 150.981 71.9863C150.913 71.8008 150.807 71.6624 150.664 71.5713C150.521 71.4769 150.34 71.4297 150.122 71.4297C149.806 71.4297 149.554 71.5013 149.365 71.6445C149.18 71.7878 149.046 71.9993 148.965 72.2793C148.883 72.556 148.843 72.8962 148.843 73.2998V76H147.695V70.5947H148.589L148.75 71.3223H148.813C148.924 71.1335 149.061 70.9788 149.224 70.8584C149.39 70.7347 149.574 70.6436 149.775 70.585C149.977 70.5231 150.187 70.4922 150.405 70.4922C150.809 70.4922 151.149 70.5638 151.426 70.707C151.702 70.847 151.909 71.0618 152.046 71.3516H152.134C152.303 71.0586 152.539 70.8421 152.842 70.7021C153.145 70.5622 153.465 70.4922 153.804 70.4922ZM159.355 70.4922C160.039 70.4922 160.555 70.6436 160.903 70.9463C161.255 71.249 161.431 71.721 161.431 72.3623V76H160.615L160.396 75.2334H160.356C160.203 75.4287 160.046 75.5898 159.883 75.7168C159.72 75.8438 159.531 75.9382 159.316 76C159.105 76.0651 158.846 76.0977 158.54 76.0977C158.218 76.0977 157.93 76.0391 157.676 75.9219C157.422 75.8014 157.222 75.6191 157.075 75.375C156.929 75.1309 156.855 74.8216 156.855 74.4473C156.855 73.8906 157.062 73.4723 157.476 73.1924C157.892 72.9124 158.521 72.7578 159.36 72.7285L160.298 72.6943V72.4111C160.298 72.0368 160.21 71.7699 160.034 71.6104C159.862 71.4508 159.618 71.3711 159.302 71.3711C159.032 71.3711 158.77 71.4102 158.516 71.4883C158.262 71.5664 158.014 71.6624 157.773 71.7764L157.402 70.9658C157.666 70.8258 157.965 70.7119 158.301 70.624C158.639 70.5361 158.991 70.4922 159.355 70.4922ZM160.293 73.417L159.595 73.4414C159.022 73.4609 158.62 73.5586 158.389 73.7344C158.158 73.9102 158.042 74.151 158.042 74.457C158.042 74.724 158.122 74.9193 158.281 75.043C158.441 75.1634 158.651 75.2236 158.911 75.2236C159.308 75.2236 159.637 75.1113 159.897 74.8867C160.161 74.6589 160.293 74.3252 160.293 73.8857V73.417Z" fill="#057C36"/>
<path d="M195.304 68.8613H197.428C198.349 68.8613 199.044 68.9948 199.513 69.2617C199.981 69.5286 200.216 69.9893 200.216 70.6436C200.216 70.917 200.167 71.1644 200.069 71.3857C199.975 71.6038 199.837 71.7845 199.654 71.9277C199.472 72.0677 199.247 72.1621 198.98 72.2109V72.2598C199.257 72.3086 199.503 72.3949 199.718 72.5186C199.936 72.6423 200.107 72.8197 200.23 73.0508C200.357 73.2819 200.421 73.5814 200.421 73.9492C200.421 74.3854 200.317 74.7565 200.108 75.0625C199.903 75.3685 199.609 75.6012 199.225 75.7607C198.844 75.9202 198.391 76 197.867 76H195.304V68.8613ZM196.476 71.8057H197.599C198.129 71.8057 198.497 71.7194 198.702 71.5469C198.907 71.3743 199.01 71.1221 199.01 70.79C199.01 70.4515 198.888 70.2074 198.644 70.0576C198.403 69.9079 198.019 69.833 197.491 69.833H196.476V71.8057ZM196.476 72.7529V75.0186H197.711C198.258 75.0186 198.642 74.9128 198.863 74.7012C199.085 74.4896 199.195 74.2031 199.195 73.8418C199.195 73.6204 199.145 73.4284 199.044 73.2656C198.946 73.1029 198.785 72.9775 198.561 72.8896C198.336 72.7985 198.033 72.7529 197.652 72.7529H196.476ZM203.897 70.4922C204.581 70.4922 205.097 70.6436 205.445 70.9463C205.797 71.249 205.973 71.721 205.973 72.3623V76H205.157L204.938 75.2334H204.898C204.745 75.4287 204.588 75.5898 204.425 75.7168C204.262 75.8438 204.073 75.9382 203.858 76C203.647 76.0651 203.388 76.0977 203.082 76.0977C202.76 76.0977 202.472 76.0391 202.218 75.9219C201.964 75.8014 201.764 75.6191 201.617 75.375C201.471 75.1309 201.397 74.8216 201.397 74.4473C201.397 73.8906 201.604 73.4723 202.018 73.1924C202.434 72.9124 203.062 72.7578 203.902 72.7285L204.84 72.6943V72.4111C204.84 72.0368 204.752 71.7699 204.576 71.6104C204.404 71.4508 204.16 71.3711 203.844 71.3711C203.574 71.3711 203.312 71.4102 203.058 71.4883C202.804 71.5664 202.556 71.6624 202.315 71.7764L201.944 70.9658C202.208 70.8258 202.507 70.7119 202.843 70.624C203.181 70.5361 203.533 70.4922 203.897 70.4922ZM204.835 73.417L204.137 73.4414C203.564 73.4609 203.162 73.5586 202.931 73.7344C202.7 73.9102 202.584 74.151 202.584 74.457C202.584 74.724 202.664 74.9193 202.823 75.043C202.983 75.1634 203.193 75.2236 203.453 75.2236C203.85 75.2236 204.179 75.1113 204.439 74.8867C204.703 74.6589 204.835 74.3252 204.835 73.8857V73.417ZM210.396 70.4922C211.005 70.4922 211.479 70.6501 211.817 70.9658C212.159 71.2783 212.33 71.7812 212.33 72.4746V76H211.183V72.6895C211.183 72.2695 211.096 71.9554 210.924 71.7471C210.751 71.5355 210.484 71.4297 210.123 71.4297C209.599 71.4297 209.234 71.5908 209.029 71.9131C208.827 72.2354 208.727 72.7025 208.727 73.3145V76H207.579V70.5947H208.473L208.634 71.3271H208.697C208.814 71.1383 208.959 70.9837 209.132 70.8633C209.308 70.7396 209.503 70.6468 209.718 70.585C209.936 70.5231 210.162 70.4922 210.396 70.4922ZM208.009 69.9355C208.028 69.7077 208.071 69.5091 208.136 69.3398C208.201 69.1673 208.285 69.0241 208.39 68.9102C208.497 68.793 208.619 68.7051 208.756 68.6465C208.896 68.5879 209.047 68.5586 209.21 68.5586C209.353 68.5586 209.49 68.5863 209.62 68.6416C209.754 68.6969 209.882 68.762 210.006 68.8369C210.133 68.9085 210.255 68.972 210.372 69.0273C210.493 69.0827 210.608 69.1104 210.719 69.1104C210.846 69.1104 210.953 69.0648 211.041 68.9736C211.132 68.8825 211.201 68.7409 211.246 68.5488H211.847C211.808 68.998 211.679 69.3415 211.461 69.5791C211.243 69.8135 210.971 69.9307 210.646 69.9307C210.509 69.9307 210.374 69.903 210.24 69.8477C210.11 69.7891 209.983 69.724 209.859 69.6523C209.736 69.5807 209.614 69.5173 209.493 69.4619C209.373 69.4066 209.256 69.3789 209.142 69.3789C209.011 69.3789 208.901 69.4245 208.81 69.5156C208.722 69.6068 208.657 69.7467 208.614 69.9355H208.009ZM218.722 73.2852C218.722 73.7344 218.663 74.1331 218.546 74.4814C218.429 74.8298 218.258 75.1243 218.033 75.3652C217.809 75.6029 217.538 75.7852 217.223 75.9121C216.907 76.0358 216.55 76.0977 216.153 76.0977C215.782 76.0977 215.442 76.0358 215.133 75.9121C214.824 75.7852 214.555 75.6029 214.327 75.3652C214.103 75.1243 213.928 74.8298 213.805 74.4814C213.681 74.1331 213.619 73.7344 213.619 73.2852C213.619 72.6895 213.722 72.1849 213.927 71.7715C214.135 71.3548 214.431 71.0374 214.815 70.8193C215.2 70.6012 215.657 70.4922 216.188 70.4922C216.686 70.4922 217.125 70.6012 217.506 70.8193C217.887 71.0374 218.185 71.3548 218.399 71.7715C218.614 72.1882 218.722 72.6927 218.722 73.2852ZM214.801 73.2852C214.801 73.679 214.848 74.016 214.942 74.2959C215.04 74.5758 215.19 74.7907 215.392 74.9404C215.593 75.0869 215.854 75.1602 216.173 75.1602C216.492 75.1602 216.752 75.0869 216.954 74.9404C217.156 74.7907 217.304 74.5758 217.398 74.2959C217.493 74.016 217.54 73.679 217.54 73.2852C217.54 72.8913 217.493 72.5576 217.398 72.2842C217.304 72.0075 217.156 71.7975 216.954 71.6543C216.752 71.5078 216.49 71.4346 216.168 71.4346C215.693 71.4346 215.346 71.5941 215.128 71.9131C214.91 72.2321 214.801 72.6895 214.801 73.2852ZM225.411 70.4922C226.052 70.4922 226.567 70.7266 226.954 71.1953C227.345 71.6641 227.54 72.3607 227.54 73.2852C227.54 73.8971 227.449 74.4131 227.267 74.833C227.088 75.2497 226.835 75.5654 226.51 75.7803C226.188 75.9919 225.812 76.0977 225.382 76.0977C225.108 76.0977 224.871 76.0618 224.669 75.9902C224.467 75.9186 224.295 75.8258 224.151 75.7119C224.008 75.5947 223.888 75.4678 223.79 75.3311H223.722C223.738 75.4613 223.753 75.6061 223.766 75.7656C223.782 75.9219 223.79 76.0651 223.79 76.1953V78.3975H222.638V70.5947H223.575L223.736 71.3418H223.79C223.891 71.1888 224.013 71.0472 224.156 70.917C224.303 70.7868 224.479 70.6842 224.684 70.6094C224.892 70.5312 225.134 70.4922 225.411 70.4922ZM225.104 71.4297C224.788 71.4297 224.534 71.4932 224.342 71.6201C224.153 71.7438 224.015 71.931 223.927 72.1816C223.842 72.4323 223.797 72.7464 223.79 73.124V73.2852C223.79 73.6855 223.831 74.0257 223.912 74.3057C223.997 74.5824 224.135 74.7939 224.327 74.9404C224.522 75.0837 224.786 75.1553 225.118 75.1553C225.398 75.1553 225.629 75.0788 225.812 74.9258C225.997 74.7728 226.135 74.5547 226.227 74.2715C226.318 73.9883 226.363 73.6546 226.363 73.2705C226.363 72.6878 226.259 72.2354 226.051 71.9131C225.846 71.5908 225.53 71.4297 225.104 71.4297ZM231.607 70.4922C231.699 70.4922 231.798 70.4971 231.905 70.5068C232.013 70.5166 232.105 70.5296 232.184 70.5459L232.076 71.6201C232.008 71.6006 231.923 71.5859 231.822 71.5762C231.725 71.5664 231.637 71.5615 231.559 71.5615C231.354 71.5615 231.158 71.5957 230.973 71.6641C230.787 71.7292 230.623 71.8301 230.479 71.9668C230.336 72.1003 230.224 72.2679 230.143 72.4697C230.061 72.6715 230.021 72.9059 230.021 73.1729V76H228.868V70.5947H229.767L229.923 71.5469H229.977C230.084 71.3548 230.217 71.179 230.377 71.0195C230.536 70.86 230.719 70.7331 230.924 70.6387C231.132 70.541 231.36 70.4922 231.607 70.4922ZM234.332 70.5947V76H233.185V70.5947H234.332ZM233.766 68.5244C233.941 68.5244 234.093 68.5716 234.22 68.666C234.35 68.7604 234.415 68.9232 234.415 69.1543C234.415 69.3822 234.35 69.5449 234.22 69.6426C234.093 69.737 233.941 69.7842 233.766 69.7842C233.583 69.7842 233.429 69.737 233.302 69.6426C233.178 69.5449 233.116 69.3822 233.116 69.1543C233.116 68.9232 233.178 68.7604 233.302 68.666C233.429 68.5716 233.583 68.5244 233.766 68.5244ZM237.213 76L235.157 70.5947H236.373L237.486 73.7686C237.558 73.9704 237.623 74.1885 237.682 74.4229C237.74 74.6572 237.781 74.8542 237.804 75.0137H237.843C237.866 74.8477 237.91 74.6491 237.975 74.418C238.04 74.1836 238.106 73.9671 238.175 73.7686L239.288 70.5947H240.499L238.443 76H237.213ZM243.438 70.4922C244.122 70.4922 244.638 70.6436 244.986 70.9463C245.338 71.249 245.514 71.721 245.514 72.3623V76H244.698L244.479 75.2334H244.439C244.286 75.4287 244.129 75.5898 243.966 75.7168C243.803 75.8438 243.614 75.9382 243.399 76C243.188 76.0651 242.929 76.0977 242.623 76.0977C242.301 76.0977 242.013 76.0391 241.759 75.9219C241.505 75.8014 241.305 75.6191 241.158 75.375C241.012 75.1309 240.938 74.8216 240.938 74.4473C240.938 73.8906 241.145 73.4723 241.559 73.1924C241.975 72.9124 242.604 72.7578 243.443 72.7285L244.381 72.6943V72.4111C244.381 72.0368 244.293 71.7699 244.117 71.6104C243.945 71.4508 243.701 71.3711 243.385 71.3711C243.115 71.3711 242.853 71.4102 242.599 71.4883C242.345 71.5664 242.097 71.6624 241.856 71.7764L241.485 70.9658C241.749 70.8258 242.049 70.7119 242.384 70.624C242.722 70.5361 243.074 70.4922 243.438 70.4922ZM244.376 73.417L243.678 73.4414C243.105 73.4609 242.703 73.5586 242.472 73.7344C242.241 73.9102 242.125 74.151 242.125 74.457C242.125 74.724 242.205 74.9193 242.364 75.043C242.524 75.1634 242.734 75.2236 242.994 75.2236C243.391 75.2236 243.72 75.1113 243.98 74.8867C244.244 74.6589 244.376 74.3252 244.376 73.8857V73.417ZM248.937 76.0977C248.292 76.0977 247.774 75.8633 247.384 75.3945C246.996 74.9225 246.803 74.2275 246.803 73.3096C246.803 72.3818 247 71.6803 247.394 71.2051C247.791 70.7298 248.313 70.4922 248.961 70.4922C249.234 70.4922 249.474 70.5296 249.679 70.6045C249.884 70.6761 250.06 70.7738 250.206 70.8975C250.356 71.0212 250.483 71.1595 250.587 71.3125H250.641C250.624 71.2116 250.605 71.0667 250.582 70.8779C250.562 70.6859 250.553 70.5085 250.553 70.3457V68.4023H251.705V76H250.807L250.602 75.2627H250.553C250.455 75.4189 250.331 75.5605 250.182 75.6875C250.035 75.8112 249.859 75.9105 249.654 75.9854C249.452 76.0602 249.213 76.0977 248.937 76.0977ZM249.259 75.165C249.75 75.165 250.097 75.0234 250.299 74.7402C250.501 74.457 250.605 74.0322 250.611 73.4658V73.3145C250.611 72.709 250.514 72.2451 250.318 71.9229C250.123 71.5973 249.767 71.4346 249.249 71.4346C248.836 71.4346 248.52 71.6022 248.302 71.9375C248.087 72.2695 247.979 72.7334 247.979 73.3291C247.979 73.9248 248.087 74.3805 248.302 74.6963C248.52 75.0088 248.839 75.165 249.259 75.165ZM258.136 73.2852C258.136 73.7344 258.077 74.1331 257.96 74.4814C257.843 74.8298 257.672 75.1243 257.447 75.3652C257.223 75.6029 256.952 75.7852 256.637 75.9121C256.321 76.0358 255.965 76.0977 255.567 76.0977C255.196 76.0977 254.856 76.0358 254.547 75.9121C254.238 75.7852 253.969 75.6029 253.741 75.3652C253.517 75.1243 253.342 74.8298 253.219 74.4814C253.095 74.1331 253.033 73.7344 253.033 73.2852C253.033 72.6895 253.136 72.1849 253.341 71.7715C253.549 71.3548 253.845 71.0374 254.229 70.8193C254.614 70.6012 255.071 70.4922 255.602 70.4922C256.1 70.4922 256.539 70.6012 256.92 70.8193C257.301 71.0374 257.599 71.3548 257.813 71.7715C258.028 72.1882 258.136 72.6927 258.136 73.2852ZM254.215 73.2852C254.215 73.679 254.262 74.016 254.356 74.2959C254.454 74.5758 254.604 74.7907 254.806 74.9404C255.007 75.0869 255.268 75.1602 255.587 75.1602C255.906 75.1602 256.166 75.0869 256.368 74.9404C256.57 74.7907 256.718 74.5758 256.812 74.2959C256.907 74.016 256.954 73.679 256.954 73.2852C256.954 72.8913 256.907 72.5576 256.812 72.2842C256.718 72.0075 256.57 71.7975 256.368 71.6543C256.166 71.5078 255.904 71.4346 255.582 71.4346C255.107 71.4346 254.76 71.5941 254.542 71.9131C254.324 72.2321 254.215 72.6895 254.215 73.2852Z" fill="#057C36"/>
<path d="M299.91 76H298.733V69.8574H296.644V68.8613H301.995V69.8574H299.91V76ZM308.382 68.8613L305.887 76H304.646L302.151 68.8613H303.353L304.856 73.334C304.902 73.4642 304.951 73.6221 305.003 73.8076C305.058 73.9932 305.109 74.1803 305.154 74.3691C305.203 74.5579 305.241 74.7256 305.267 74.8721C305.293 74.7256 305.328 74.5579 305.374 74.3691C305.423 74.1803 305.473 73.9932 305.525 73.8076C305.577 73.6221 305.626 73.4626 305.672 73.3291L307.181 68.8613H308.382ZM308.733 73.8027V72.8311H311.253V73.8027H308.733ZM320.984 68.8613L319.119 76H317.84L316.648 71.7227C316.619 71.6185 316.587 71.4948 316.551 71.3516C316.515 71.2083 316.479 71.0618 316.443 70.9121C316.411 70.7624 316.382 70.6257 316.355 70.502C316.333 70.375 316.316 70.2773 316.307 70.209C316.3 70.2773 316.285 70.3734 316.263 70.4971C316.24 70.6208 316.212 70.7575 316.18 70.9072C316.15 71.0537 316.118 71.2002 316.082 71.3467C316.046 71.4899 316.014 71.6169 315.984 71.7275L314.812 76H313.538L311.678 68.8613H312.854L313.885 73.0459C313.917 73.1794 313.95 73.3242 313.982 73.4805C314.018 73.6335 314.051 73.7881 314.08 73.9443C314.113 74.1006 314.142 74.2536 314.168 74.4033C314.194 74.5498 314.215 74.6833 314.231 74.8037C314.248 74.68 314.269 74.5433 314.295 74.3936C314.321 74.2406 314.349 74.0859 314.378 73.9297C314.41 73.7702 314.443 73.6172 314.476 73.4707C314.511 73.3242 314.547 73.1924 314.583 73.0752L315.745 68.8613H316.888L318.074 73.0898C318.11 73.2103 318.144 73.3454 318.177 73.4951C318.213 73.6449 318.247 73.7979 318.279 73.9541C318.312 74.1104 318.341 74.2617 318.367 74.4082C318.393 74.5547 318.414 74.6865 318.431 74.8037C318.453 74.6442 318.483 74.4619 318.519 74.2568C318.554 74.0518 318.595 73.8434 318.641 73.6318C318.686 73.4202 318.732 73.2249 318.777 73.0459L319.803 68.8613H320.984ZM321.995 76V68.8613H323.167V76H321.995ZM326.214 76H325.052V68.8613H329.085V69.8477H326.214V72.0742H328.899V73.0557H326.214V76ZM330.384 76V68.8613H331.556V76H330.384Z" fill="#057C36"/>
<path fill-rule="evenodd" clip-rule="evenodd" d="M62.2081 26.338C65.0178 26.338 67.2951 28.6176 67.2951 31.4299C67.2951 34.2422 65.0177 36.5218 62.2081 36.5218C59.3984 36.5218 57.121 34.2422 57.121 31.4299C57.121 28.6176 59.3985 26.338 62.2081 26.338ZM73.8022 22.2715C76.612 22.2715 78.8893 24.5516 78.8893 27.364C78.8893 30.1763 76.6119 32.4559 73.8022 32.4559C70.9925 32.4559 68.7152 30.1763 68.7152 27.364C68.7152 24.5516 70.9926 22.2715 73.8022 22.2715ZM73.118 46.205H83.0096V43.4549C83.0096 38.3857 78.8663 34.2381 73.8022 34.2381C70.9911 34.2381 68.4645 35.5164 66.7722 37.5203C70.1749 39.0868 72.6539 42.3455 73.118 46.2051V46.205ZM53 50.2715H71.4147V47.5208C71.4147 42.4517 67.2714 38.3047 62.2073 38.3047C57.143 38.3047 53 42.452 53 47.5208V50.2715Z" fill="#057C36"/>
<path fill-rule="evenodd" clip-rule="evenodd" d="M132.027 22H160.992V34.2828C159.811 33.7489 158.437 33.4506 156.958 33.3327V28.2272C156.958 28.0274 156.82 27.8545 156.625 27.8107C155.859 27.6395 155.141 27.811 154.493 27.9962C153.846 28.1808 153.254 28.3767 152.737 28.3767C152.151 28.3767 151.539 28.1575 150.865 27.959C150.19 27.7601 149.433 27.5871 148.611 27.8163C148.426 27.8678 148.298 28.0358 148.298 28.2272V33.2723H144.722V28.2272H144.721C144.721 28.0274 144.583 27.8542 144.388 27.8107C143.62 27.6395 142.901 27.811 142.253 27.9962C141.605 28.1811 141.014 28.3767 140.5 28.3767C139.911 28.3767 139.299 28.1575 138.624 27.959C137.95 27.7601 137.194 27.5868 136.373 27.8163C136.189 27.8678 136.061 28.0358 136.061 28.2272V33.3336C134.583 33.4527 133.209 33.7525 132.027 34.2876L132.027 22Z" fill="#057C36"/>
<path fill-rule="evenodd" clip-rule="evenodd" d="M137.146 28.5611C137.544 28.5546 137.945 28.6493 138.383 28.7782C139.019 28.9658 139.711 29.231 140.5 29.231C141.215 29.231 141.87 28.9937 142.487 28.8178C142.977 28.6782 143.433 28.5763 143.868 28.5998V33.273H137.636C137.394 33.273 137.153 33.2772 136.915 33.2855V28.5772C136.992 28.568 137.069 28.5626 137.146 28.5611L137.146 28.5611Z" fill="#057C36"/>
<path fill-rule="evenodd" clip-rule="evenodd" d="M149.385 28.5611C149.784 28.5546 150.186 28.6493 150.623 28.7782C151.259 28.9658 151.95 29.231 152.737 29.231C153.454 29.231 154.111 28.9937 154.727 28.8178C155.217 28.6782 155.672 28.5766 156.105 28.5998V33.285C155.87 33.2769 155.634 33.2731 155.396 33.2731H149.152V28.5776C149.229 28.568 149.307 28.5627 149.385 28.5615L149.385 28.5611Z" fill="#057C36"/>
<path fill-rule="evenodd" clip-rule="evenodd" d="M137.636 34.1267H155.397C157.837 34.1267 160.021 34.5658 161.554 35.5549C162.991 36.4829 163.893 37.8608 164 39.9697H129.021C129.128 37.8611 130.034 36.4832 131.475 35.5549C133.011 34.5655 135.199 34.1264 137.637 34.1264L137.636 34.1267Z" fill="#057C36"/>
<path fill-rule="evenodd" clip-rule="evenodd" d="M129.01 40.8233H164.01V47.7081H129.01V40.8233Z" fill="#057C36"/>
<path fill-rule="evenodd" clip-rule="evenodd" d="M131.526 48.6869C131.412 48.6854 131.303 48.7825 131.222 48.9567C131.141 49.1308 131.096 49.3678 131.096 49.6149C131.096 49.8621 131.141 50.0991 131.222 50.2732C131.303 50.4474 131.412 50.5445 131.526 50.543H135.794H135.794C135.907 50.5445 136.017 50.4474 136.097 50.2732C136.178 50.099 136.223 49.8621 136.223 49.6149C136.223 49.3678 136.178 49.1308 136.097 48.9567C136.017 48.7825 135.907 48.6854 135.794 48.6869H131.525H131.526Z" fill="#057C36"/>
<path fill-rule="evenodd" clip-rule="evenodd" d="M157.225 48.6869C157.112 48.6854 157.002 48.7825 156.922 48.9567C156.841 49.1308 156.796 49.3678 156.796 49.6149C156.796 49.8621 156.841 50.0991 156.922 50.2732C157.002 50.4474 157.112 50.5445 157.225 50.543H161.494C161.607 50.5445 161.716 50.4474 161.797 50.2732C161.878 50.099 161.923 49.8621 161.923 49.6149C161.923 49.3678 161.878 49.1308 161.797 48.9567C161.716 48.7825 161.607 48.6854 161.494 48.6869H157.225Z" fill="#057C36"/>
<g clip-path="url(#clip0_125_776)">
<path d="M224.257 22.2715H223.442C223.17 22.2715 222.929 22.4827 222.929 22.7844V49.7586C222.929 50.0301 223.14 50.2715 223.442 50.2715H224.257C224.528 50.2715 224.77 50.0603 224.77 49.7586V22.7844C224.74 22.5129 224.528 22.2715 224.257 22.2715Z" fill="#057C36"/>
<path d="M235.905 25.0775C235.905 26.6276 234.649 27.8836 233.099 27.8836C231.549 27.8836 230.292 26.6271 230.292 25.0775C230.292 23.528 231.548 22.2715 233.099 22.2715C234.649 22.2715 235.905 23.528 235.905 25.0775Z" fill="#057C36"/>
<path d="M238.591 42.1551L236.931 38.4439H237.022C237.626 38.4439 238.078 37.9008 237.988 37.3275L236.298 29.7844C236.207 29.181 235.694 28.668 235.121 28.668H231.167C230.594 28.668 230.081 29.181 229.991 29.7844L228.301 37.3275C228.21 37.9008 228.663 38.4439 229.266 38.4439H229.357L227.697 42.1551C227.425 42.8189 227.788 43.181 228.331 43.181L231.107 43.2715L231.56 49.0948C231.62 49.7585 232.163 50.2715 232.797 50.2715H233.521C234.185 50.2715 234.728 49.7585 234.759 49.0948L235.211 43.2413L237.988 43.181C238.47 43.181 238.893 42.7893 238.591 42.1551Z" fill="#057C36"/>
<path d="M217.437 28.6379L216.742 28.6077H212.638L211.914 28.6379C210.797 28.6982 209.952 29.6637 210.013 30.7499L210.405 37.237C210.465 38.0818 211.16 38.7155 211.974 38.7155H212.065L212.729 48.793C212.789 49.7284 213.332 50.2413 213.966 50.2413H215.264C215.928 50.2413 216.471 49.7284 216.501 48.793L217.165 38.7155H217.286C218.131 38.7155 218.825 38.0517 218.855 37.237L219.247 30.7499C219.398 29.6336 218.553 28.6982 217.437 28.6379Z" fill="#057C36"/>
<path d="M217.467 25.0775C217.467 26.6276 216.21 27.8836 214.66 27.8836C213.11 27.8836 211.854 26.6271 211.854 25.0775C211.854 23.528 213.11 22.2715 214.66 22.2715C216.211 22.2715 217.467 23.528 217.467 25.0775Z" fill="#057C36"/>
</g>
<path fill-rule="evenodd" clip-rule="evenodd" d="M306.56 47.887H284.693V22.2715H331.978V47.887H310.111C311.315 48.3177 312.316 49.1728 312.933 50.2715H311.153C310.455 49.5085 309.451 49.0299 308.335 49.0299C307.22 49.0299 306.215 49.5085 305.518 50.2715H303.738C304.355 49.1728 305.356 48.3177 306.56 47.887H306.56ZM331.63 22.6184V47.5391H285.04V22.6184H331.63ZM330.986 23.1939H285.685V46.9636H330.986V23.1939Z" fill="#057C36"/>
<defs>
<clipPath id="clip0_125_776">
<rect width="28.6829" height="28" fill="white" transform="translate(210.01 22.2715)"/>
</clipPath>
</defs>
</svg>
