<svg width="599" height="93" viewBox="0 0 599 93" fill="none" xmlns="http://www.w3.org/2000/svg">
<path d="M31.9648 76H27.1309V75.1357L28.9814 73.2607C29.3395 72.8962 29.6341 72.582 29.8652 72.3184C30.0964 72.0514 30.2673 71.7992 30.3779 71.5615C30.4919 71.3239 30.5488 71.0651 30.5488 70.7852C30.5488 70.4401 30.4495 70.1797 30.251 70.0039C30.0524 69.8249 29.7904 69.7354 29.4648 69.7354C29.1556 69.7354 28.8691 69.7972 28.6055 69.9209C28.3451 70.0413 28.0749 70.2139 27.7949 70.4385L27.165 69.6816C27.3636 69.5124 27.5752 69.3577 27.7998 69.2178C28.0277 69.0778 28.2816 68.9671 28.5615 68.8857C28.8415 68.8011 29.1605 68.7588 29.5186 68.7588C29.971 68.7588 30.3617 68.8402 30.6904 69.0029C31.0192 69.1624 31.2715 69.3854 31.4473 69.6719C31.6263 69.9583 31.7158 70.292 31.7158 70.6729C31.7158 71.057 31.6393 71.4118 31.4863 71.7373C31.3333 72.0628 31.1152 72.3851 30.832 72.7041C30.5488 73.0199 30.2119 73.3633 29.8213 73.7344L28.5859 74.9404V74.9941H31.9648V76ZM38.5957 70.4922C39.237 70.4922 39.7513 70.7266 40.1387 71.1953C40.5293 71.6641 40.7246 72.3607 40.7246 73.2852C40.7246 73.8971 40.6335 74.4131 40.4512 74.833C40.2721 75.2497 40.0199 75.5654 39.6943 75.7803C39.3721 75.9919 38.9961 76.0977 38.5664 76.0977C38.293 76.0977 38.0553 76.0618 37.8535 75.9902C37.6517 75.9186 37.4792 75.8258 37.3359 75.7119C37.1927 75.5947 37.0723 75.4678 36.9746 75.3311H36.9062C36.9225 75.4613 36.9372 75.6061 36.9502 75.7656C36.9665 75.9219 36.9746 76.0651 36.9746 76.1953V78.3975H35.8223V70.5947H36.7598L36.9209 71.3418H36.9746C37.0755 71.1888 37.1976 71.0472 37.3408 70.917C37.4873 70.7868 37.6631 70.6842 37.8682 70.6094C38.0765 70.5312 38.319 70.4922 38.5957 70.4922ZM38.2881 71.4297C37.9723 71.4297 37.7184 71.4932 37.5264 71.6201C37.3376 71.7438 37.1992 71.931 37.1113 72.1816C37.0267 72.4323 36.9811 72.7464 36.9746 73.124V73.2852C36.9746 73.6855 37.0153 74.0257 37.0967 74.3057C37.1813 74.5824 37.3197 74.7939 37.5117 74.9404C37.707 75.0837 37.9707 75.1553 38.3027 75.1553C38.5827 75.1553 38.8138 75.0788 38.9961 74.9258C39.1816 74.7728 39.32 74.5547 39.4111 74.2715C39.5023 73.9883 39.5479 73.6546 39.5479 73.2705C39.5479 72.6878 39.4437 72.2354 39.2354 71.9131C39.0303 71.5908 38.7145 71.4297 38.2881 71.4297ZM44.2061 70.4922C44.6878 70.4922 45.1012 70.5915 45.4463 70.79C45.7913 70.9886 46.0566 71.2702 46.2422 71.6348C46.4277 71.9993 46.5205 72.4355 46.5205 72.9434V73.5586H42.9121C42.9251 74.0827 43.0651 74.4863 43.332 74.7695C43.6022 75.0527 43.9798 75.1943 44.4648 75.1943C44.8099 75.1943 45.1191 75.1618 45.3926 75.0967C45.6693 75.0283 45.9541 74.929 46.2471 74.7988V75.7314C45.9769 75.8584 45.7018 75.9512 45.4219 76.0098C45.1419 76.0684 44.8066 76.0977 44.416 76.0977C43.8854 76.0977 43.4183 75.9951 43.0146 75.79C42.6143 75.5817 42.3001 75.2725 42.0723 74.8623C41.8477 74.4521 41.7354 73.9427 41.7354 73.334C41.7354 72.7285 41.8379 72.2142 42.043 71.791C42.248 71.3678 42.5361 71.0456 42.9072 70.8242C43.2783 70.6029 43.7113 70.4922 44.2061 70.4922ZM44.2061 71.3564C43.8447 71.3564 43.5518 71.4736 43.3271 71.708C43.1058 71.9424 42.9756 72.2858 42.9365 72.7383H45.3975C45.3942 72.4681 45.3486 72.2288 45.2607 72.0205C45.1761 71.8122 45.0459 71.6494 44.8701 71.5322C44.6976 71.415 44.4762 71.3564 44.2061 71.3564ZM50.5537 70.4922C50.6449 70.4922 50.7441 70.4971 50.8516 70.5068C50.959 70.5166 51.0518 70.5296 51.1299 70.5459L51.0225 71.6201C50.9541 71.6006 50.8695 71.5859 50.7686 71.5762C50.6709 71.5664 50.583 71.5615 50.5049 71.5615C50.2998 71.5615 50.1045 71.5957 49.9189 71.6641C49.7334 71.7292 49.569 71.8301 49.4258 71.9668C49.2826 72.1003 49.1702 72.2679 49.0889 72.4697C49.0075 72.6715 48.9668 72.9059 48.9668 73.1729V76H47.8145V70.5947H48.7129L48.8691 71.5469H48.9229C49.0303 71.3548 49.1637 71.179 49.3232 71.0195C49.4827 70.86 49.665 70.7331 49.8701 70.6387C50.0785 70.541 50.3063 70.4922 50.5537 70.4922ZM55.7637 74.457C55.7637 74.8118 55.6774 75.1113 55.5049 75.3555C55.3324 75.5996 55.0801 75.7852 54.748 75.9121C54.4193 76.0358 54.0156 76.0977 53.5371 76.0977C53.1595 76.0977 52.834 76.07 52.5605 76.0146C52.2904 75.9626 52.0348 75.8812 51.7939 75.7705V74.7793C52.0511 74.8997 52.3392 75.0039 52.6582 75.0918C52.9805 75.1797 53.2848 75.2236 53.5713 75.2236C53.9489 75.2236 54.2207 75.165 54.3867 75.0479C54.5527 74.9274 54.6357 74.7679 54.6357 74.5693C54.6357 74.4521 54.6016 74.348 54.5332 74.2568C54.4681 74.1624 54.3444 74.0664 54.1621 73.9688C53.9831 73.8678 53.7194 73.7474 53.3711 73.6074C53.0293 73.4707 52.7412 73.334 52.5068 73.1973C52.2725 73.0605 52.0951 72.8962 51.9746 72.7041C51.8542 72.5088 51.7939 72.2598 51.7939 71.957C51.7939 71.4785 51.9827 71.1156 52.3604 70.8682C52.7412 70.6175 53.2441 70.4922 53.8691 70.4922C54.2012 70.4922 54.5137 70.5264 54.8066 70.5947C55.1029 70.6598 55.3926 70.7559 55.6758 70.8828L55.3145 71.7471C55.0703 71.6396 54.8245 71.5518 54.5771 71.4834C54.333 71.4118 54.084 71.376 53.8301 71.376C53.5339 71.376 53.3076 71.4215 53.1514 71.5127C52.9984 71.6038 52.9219 71.734 52.9219 71.9033C52.9219 72.0303 52.9593 72.1377 53.0342 72.2256C53.109 72.3135 53.2376 72.4014 53.4199 72.4893C53.6055 72.5771 53.8626 72.6862 54.1914 72.8164C54.5137 72.9401 54.792 73.0703 55.0264 73.207C55.264 73.3405 55.4463 73.5049 55.5732 73.7002C55.7002 73.8955 55.7637 74.1478 55.7637 74.457ZM61.7891 73.2852C61.7891 73.7344 61.7305 74.1331 61.6133 74.4814C61.4961 74.8298 61.3252 75.1243 61.1006 75.3652C60.876 75.6029 60.6058 75.7852 60.29 75.9121C59.9743 76.0358 59.6178 76.0977 59.2207 76.0977C58.8496 76.0977 58.5094 76.0358 58.2002 75.9121C57.891 75.7852 57.6224 75.6029 57.3945 75.3652C57.1699 75.1243 56.9958 74.8298 56.8721 74.4814C56.7484 74.1331 56.6865 73.7344 56.6865 73.2852C56.6865 72.6895 56.7891 72.1849 56.9941 71.7715C57.2025 71.3548 57.4987 71.0374 57.8828 70.8193C58.2669 70.6012 58.7243 70.4922 59.2549 70.4922C59.7529 70.4922 60.1924 70.6012 60.5732 70.8193C60.9541 71.0374 61.252 71.3548 61.4668 71.7715C61.6816 72.1882 61.7891 72.6927 61.7891 73.2852ZM57.8682 73.2852C57.8682 73.679 57.9154 74.016 58.0098 74.2959C58.1074 74.5758 58.2572 74.7907 58.459 74.9404C58.6608 75.0869 58.9212 75.1602 59.2402 75.1602C59.5592 75.1602 59.8197 75.0869 60.0215 74.9404C60.2233 74.7907 60.3714 74.5758 60.4658 74.2959C60.5602 74.016 60.6074 73.679 60.6074 73.2852C60.6074 72.8913 60.5602 72.5576 60.4658 72.2842C60.3714 72.0075 60.2233 71.7975 60.0215 71.6543C59.8197 71.5078 59.5576 71.4346 59.2354 71.4346C58.7601 71.4346 58.4134 71.5941 58.1953 71.9131C57.9772 72.2321 57.8682 72.6895 57.8682 73.2852ZM65.9248 70.4922C66.5335 70.4922 67.0072 70.6501 67.3457 70.9658C67.6875 71.2783 67.8584 71.7812 67.8584 72.4746V76H66.7109V72.6895C66.7109 72.2695 66.6247 71.9554 66.4521 71.7471C66.2796 71.5355 66.0127 71.4297 65.6514 71.4297C65.1273 71.4297 64.7627 71.5908 64.5576 71.9131C64.3558 72.2354 64.2549 72.7025 64.2549 73.3145V76H63.1074V70.5947H64.001L64.1621 71.3271H64.2256C64.3428 71.1383 64.4876 70.9837 64.6602 70.8633C64.8359 70.7396 65.0312 70.6468 65.2461 70.585C65.4642 70.5231 65.6904 70.4922 65.9248 70.4922ZM71.584 70.4922C72.2676 70.4922 72.7835 70.6436 73.1318 70.9463C73.4834 71.249 73.6592 71.721 73.6592 72.3623V76H72.8438L72.624 75.2334H72.585C72.432 75.4287 72.2741 75.5898 72.1113 75.7168C71.9486 75.8438 71.7598 75.9382 71.5449 76C71.3333 76.0651 71.0745 76.0977 70.7686 76.0977C70.4463 76.0977 70.1582 76.0391 69.9043 75.9219C69.6504 75.8014 69.4502 75.6191 69.3037 75.375C69.1572 75.1309 69.084 74.8216 69.084 74.4473C69.084 73.8906 69.2907 73.4723 69.7041 73.1924C70.1208 72.9124 70.749 72.7578 71.5889 72.7285L72.5264 72.6943V72.4111C72.5264 72.0368 72.4385 71.7699 72.2627 71.6104C72.0902 71.4508 71.846 71.3711 71.5303 71.3711C71.2601 71.3711 70.998 71.4102 70.7441 71.4883C70.4902 71.5664 70.2428 71.6624 70.002 71.7764L69.6309 70.9658C69.8945 70.8258 70.194 70.7119 70.5293 70.624C70.8678 70.5361 71.2194 70.4922 71.584 70.4922ZM72.5215 73.417L71.8232 73.4414C71.2503 73.4609 70.8483 73.5586 70.6172 73.7344C70.3861 73.9102 70.2705 74.151 70.2705 74.457C70.2705 74.724 70.3503 74.9193 70.5098 75.043C70.6693 75.1634 70.8792 75.2236 71.1396 75.2236C71.5368 75.2236 71.8656 75.1113 72.126 74.8867C72.3896 74.6589 72.5215 74.3252 72.5215 73.8857V73.417ZM78.8984 74.457C78.8984 74.8118 78.8122 75.1113 78.6396 75.3555C78.4671 75.5996 78.2148 75.7852 77.8828 75.9121C77.554 76.0358 77.1504 76.0977 76.6719 76.0977C76.2943 76.0977 75.9688 76.07 75.6953 76.0146C75.4251 75.9626 75.1696 75.8812 74.9287 75.7705V74.7793C75.1859 74.8997 75.474 75.0039 75.793 75.0918C76.1152 75.1797 76.4196 75.2236 76.7061 75.2236C77.0837 75.2236 77.3555 75.165 77.5215 75.0479C77.6875 74.9274 77.7705 74.7679 77.7705 74.5693C77.7705 74.4521 77.7363 74.348 77.668 74.2568C77.6029 74.1624 77.4792 74.0664 77.2969 73.9688C77.1178 73.8678 76.8542 73.7474 76.5059 73.6074C76.1641 73.4707 75.876 73.334 75.6416 73.1973C75.4072 73.0605 75.2298 72.8962 75.1094 72.7041C74.9889 72.5088 74.9287 72.2598 74.9287 71.957C74.9287 71.4785 75.1175 71.1156 75.4951 70.8682C75.876 70.6175 76.3789 70.4922 77.0039 70.4922C77.3359 70.4922 77.6484 70.5264 77.9414 70.5947C78.2376 70.6598 78.5273 70.7559 78.8105 70.8828L78.4492 71.7471C78.2051 71.6396 77.9593 71.5518 77.7119 71.4834C77.4678 71.4118 77.2188 71.376 76.9648 71.376C76.6686 71.376 76.4424 71.4215 76.2861 71.5127C76.1331 71.6038 76.0566 71.734 76.0566 71.9033C76.0566 72.0303 76.0941 72.1377 76.1689 72.2256C76.2438 72.3135 76.3724 72.4014 76.5547 72.4893C76.7402 72.5771 76.9974 72.6862 77.3262 72.8164C77.6484 72.9401 77.9268 73.0703 78.1611 73.207C78.3988 73.3405 78.5811 73.5049 78.708 73.7002C78.835 73.8955 78.8984 74.1478 78.8984 74.457Z" fill="#057C36"/>
<path d="M116.606 76H115.454V71.4053C115.454 71.2523 115.456 71.0993 115.459 70.9463C115.462 70.7933 115.465 70.6436 115.469 70.4971C115.475 70.3506 115.483 70.2106 115.493 70.0771C115.425 70.152 115.34 70.2334 115.239 70.3213C115.142 70.4092 115.037 70.5003 114.927 70.5947L114.106 71.249L113.53 70.5215L115.649 68.8613H116.606V76ZM124.102 76.0977C123.59 76.0977 123.148 75.9984 122.773 75.7998C122.399 75.6012 122.111 75.2969 121.909 74.8867C121.707 74.4766 121.606 73.9557 121.606 73.3242C121.606 72.6667 121.717 72.1296 121.938 71.7129C122.16 71.2962 122.466 70.9886 122.856 70.79C123.25 70.5915 123.701 70.4922 124.209 70.4922C124.531 70.4922 124.823 70.5247 125.083 70.5898C125.347 70.6517 125.57 70.7282 125.752 70.8193L125.41 71.7373C125.212 71.6559 125.008 71.5876 124.8 71.5322C124.591 71.4769 124.391 71.4492 124.199 71.4492C123.883 71.4492 123.62 71.5192 123.408 71.6592C123.2 71.7992 123.044 72.0075 122.939 72.2842C122.839 72.5609 122.788 72.9043 122.788 73.3145C122.788 73.7116 122.84 74.0469 122.944 74.3203C123.049 74.5905 123.203 74.7956 123.408 74.9355C123.613 75.0723 123.866 75.1406 124.165 75.1406C124.461 75.1406 124.727 75.1048 124.961 75.0332C125.195 74.9616 125.417 74.8688 125.625 74.7549V75.751C125.42 75.8682 125.2 75.9544 124.966 76.0098C124.731 76.0684 124.443 76.0977 124.102 76.0977ZM129.014 70.4922C129.697 70.4922 130.213 70.6436 130.562 70.9463C130.913 71.249 131.089 71.721 131.089 72.3623V76H130.273L130.054 75.2334H130.015C129.862 75.4287 129.704 75.5898 129.541 75.7168C129.378 75.8438 129.189 75.9382 128.975 76C128.763 76.0651 128.504 76.0977 128.198 76.0977C127.876 76.0977 127.588 76.0391 127.334 75.9219C127.08 75.8014 126.88 75.6191 126.733 75.375C126.587 75.1309 126.514 74.8216 126.514 74.4473C126.514 73.8906 126.72 73.4723 127.134 73.1924C127.55 72.9124 128.179 72.7578 129.019 72.7285L129.956 72.6943V72.4111C129.956 72.0368 129.868 71.7699 129.692 71.6104C129.52 71.4508 129.276 71.3711 128.96 71.3711C128.69 71.3711 128.428 71.4102 128.174 71.4883C127.92 71.5664 127.673 71.6624 127.432 71.7764L127.061 70.9658C127.324 70.8258 127.624 70.7119 127.959 70.624C128.298 70.5361 128.649 70.4922 129.014 70.4922ZM129.951 73.417L129.253 73.4414C128.68 73.4609 128.278 73.5586 128.047 73.7344C127.816 73.9102 127.7 74.151 127.7 74.457C127.7 74.724 127.78 74.9193 127.939 75.043C128.099 75.1634 128.309 75.2236 128.569 75.2236C128.966 75.2236 129.295 75.1113 129.556 74.8867C129.819 74.6589 129.951 74.3252 129.951 73.8857V73.417ZM138.804 70.4922C139.409 70.4922 139.865 70.6484 140.171 70.9609C140.48 71.2734 140.635 71.7747 140.635 72.4648V76H139.487V72.6699C139.487 72.2598 139.408 71.9505 139.248 71.7422C139.089 71.5339 138.846 71.4297 138.521 71.4297C138.065 71.4297 137.736 71.5762 137.534 71.8691C137.336 72.1589 137.236 72.5804 137.236 73.1338V76H136.089V72.6699C136.089 72.3965 136.053 72.1686 135.981 71.9863C135.913 71.8008 135.807 71.6624 135.664 71.5713C135.521 71.4769 135.34 71.4297 135.122 71.4297C134.806 71.4297 134.554 71.5013 134.365 71.6445C134.18 71.7878 134.046 71.9993 133.965 72.2793C133.883 72.556 133.843 72.8962 133.843 73.2998V76H132.695V70.5947H133.589L133.75 71.3223H133.813C133.924 71.1335 134.061 70.9788 134.224 70.8584C134.39 70.7347 134.574 70.6436 134.775 70.585C134.977 70.5231 135.187 70.4922 135.405 70.4922C135.809 70.4922 136.149 70.5638 136.426 70.707C136.702 70.847 136.909 71.0618 137.046 71.3516H137.134C137.303 71.0586 137.539 70.8421 137.842 70.7021C138.145 70.5622 138.465 70.4922 138.804 70.4922ZM144.355 70.4922C145.039 70.4922 145.555 70.6436 145.903 70.9463C146.255 71.249 146.431 71.721 146.431 72.3623V76H145.615L145.396 75.2334H145.356C145.203 75.4287 145.046 75.5898 144.883 75.7168C144.72 75.8438 144.531 75.9382 144.316 76C144.105 76.0651 143.846 76.0977 143.54 76.0977C143.218 76.0977 142.93 76.0391 142.676 75.9219C142.422 75.8014 142.222 75.6191 142.075 75.375C141.929 75.1309 141.855 74.8216 141.855 74.4473C141.855 73.8906 142.062 73.4723 142.476 73.1924C142.892 72.9124 143.521 72.7578 144.36 72.7285L145.298 72.6943V72.4111C145.298 72.0368 145.21 71.7699 145.034 71.6104C144.862 71.4508 144.618 71.3711 144.302 71.3711C144.032 71.3711 143.77 71.4102 143.516 71.4883C143.262 71.5664 143.014 71.6624 142.773 71.7764L142.402 70.9658C142.666 70.8258 142.965 70.7119 143.301 70.624C143.639 70.5361 143.991 70.4922 144.355 70.4922ZM145.293 73.417L144.595 73.4414C144.022 73.4609 143.62 73.5586 143.389 73.7344C143.158 73.9102 143.042 74.151 143.042 74.457C143.042 74.724 143.122 74.9193 143.281 75.043C143.441 75.1634 143.651 75.2236 143.911 75.2236C144.308 75.2236 144.637 75.1113 144.897 74.8867C145.161 74.6589 145.293 74.3252 145.293 73.8857V73.417Z" fill="#057C36"/>
<path d="M180.304 68.8613H182.428C183.349 68.8613 184.044 68.9948 184.513 69.2617C184.981 69.5286 185.216 69.9893 185.216 70.6436C185.216 70.917 185.167 71.1644 185.069 71.3857C184.975 71.6038 184.837 71.7845 184.654 71.9277C184.472 72.0677 184.247 72.1621 183.98 72.2109V72.2598C184.257 72.3086 184.503 72.3949 184.718 72.5186C184.936 72.6423 185.107 72.8197 185.23 73.0508C185.357 73.2819 185.421 73.5814 185.421 73.9492C185.421 74.3854 185.317 74.7565 185.108 75.0625C184.903 75.3685 184.609 75.6012 184.225 75.7607C183.844 75.9202 183.391 76 182.867 76H180.304V68.8613ZM181.476 71.8057H182.599C183.129 71.8057 183.497 71.7194 183.702 71.5469C183.907 71.3743 184.01 71.1221 184.01 70.79C184.01 70.4515 183.888 70.2074 183.644 70.0576C183.403 69.9079 183.019 69.833 182.491 69.833H181.476V71.8057ZM181.476 72.7529V75.0186H182.711C183.258 75.0186 183.642 74.9128 183.863 74.7012C184.085 74.4896 184.195 74.2031 184.195 73.8418C184.195 73.6204 184.145 73.4284 184.044 73.2656C183.946 73.1029 183.785 72.9775 183.561 72.8896C183.336 72.7985 183.033 72.7529 182.652 72.7529H181.476ZM188.897 70.4922C189.581 70.4922 190.097 70.6436 190.445 70.9463C190.797 71.249 190.973 71.721 190.973 72.3623V76H190.157L189.938 75.2334H189.898C189.745 75.4287 189.588 75.5898 189.425 75.7168C189.262 75.8438 189.073 75.9382 188.858 76C188.647 76.0651 188.388 76.0977 188.082 76.0977C187.76 76.0977 187.472 76.0391 187.218 75.9219C186.964 75.8014 186.764 75.6191 186.617 75.375C186.471 75.1309 186.397 74.8216 186.397 74.4473C186.397 73.8906 186.604 73.4723 187.018 73.1924C187.434 72.9124 188.062 72.7578 188.902 72.7285L189.84 72.6943V72.4111C189.84 72.0368 189.752 71.7699 189.576 71.6104C189.404 71.4508 189.16 71.3711 188.844 71.3711C188.574 71.3711 188.312 71.4102 188.058 71.4883C187.804 71.5664 187.556 71.6624 187.315 71.7764L186.944 70.9658C187.208 70.8258 187.507 70.7119 187.843 70.624C188.181 70.5361 188.533 70.4922 188.897 70.4922ZM189.835 73.417L189.137 73.4414C188.564 73.4609 188.162 73.5586 187.931 73.7344C187.7 73.9102 187.584 74.151 187.584 74.457C187.584 74.724 187.664 74.9193 187.823 75.043C187.983 75.1634 188.193 75.2236 188.453 75.2236C188.85 75.2236 189.179 75.1113 189.439 74.8867C189.703 74.6589 189.835 74.3252 189.835 73.8857V73.417ZM195.396 70.4922C196.005 70.4922 196.479 70.6501 196.817 70.9658C197.159 71.2783 197.33 71.7812 197.33 72.4746V76H196.183V72.6895C196.183 72.2695 196.096 71.9554 195.924 71.7471C195.751 71.5355 195.484 71.4297 195.123 71.4297C194.599 71.4297 194.234 71.5908 194.029 71.9131C193.827 72.2354 193.727 72.7025 193.727 73.3145V76H192.579V70.5947H193.473L193.634 71.3271H193.697C193.814 71.1383 193.959 70.9837 194.132 70.8633C194.308 70.7396 194.503 70.6468 194.718 70.585C194.936 70.5231 195.162 70.4922 195.396 70.4922ZM193.009 69.9355C193.028 69.7077 193.071 69.5091 193.136 69.3398C193.201 69.1673 193.285 69.0241 193.39 68.9102C193.497 68.793 193.619 68.7051 193.756 68.6465C193.896 68.5879 194.047 68.5586 194.21 68.5586C194.353 68.5586 194.49 68.5863 194.62 68.6416C194.754 68.6969 194.882 68.762 195.006 68.8369C195.133 68.9085 195.255 68.972 195.372 69.0273C195.493 69.0827 195.608 69.1104 195.719 69.1104C195.846 69.1104 195.953 69.0648 196.041 68.9736C196.132 68.8825 196.201 68.7409 196.246 68.5488H196.847C196.808 68.998 196.679 69.3415 196.461 69.5791C196.243 69.8135 195.971 69.9307 195.646 69.9307C195.509 69.9307 195.374 69.903 195.24 69.8477C195.11 69.7891 194.983 69.724 194.859 69.6523C194.736 69.5807 194.614 69.5173 194.493 69.4619C194.373 69.4066 194.256 69.3789 194.142 69.3789C194.011 69.3789 193.901 69.4245 193.81 69.5156C193.722 69.6068 193.657 69.7467 193.614 69.9355H193.009ZM203.722 73.2852C203.722 73.7344 203.663 74.1331 203.546 74.4814C203.429 74.8298 203.258 75.1243 203.033 75.3652C202.809 75.6029 202.538 75.7852 202.223 75.9121C201.907 76.0358 201.55 76.0977 201.153 76.0977C200.782 76.0977 200.442 76.0358 200.133 75.9121C199.824 75.7852 199.555 75.6029 199.327 75.3652C199.103 75.1243 198.928 74.8298 198.805 74.4814C198.681 74.1331 198.619 73.7344 198.619 73.2852C198.619 72.6895 198.722 72.1849 198.927 71.7715C199.135 71.3548 199.431 71.0374 199.815 70.8193C200.2 70.6012 200.657 70.4922 201.188 70.4922C201.686 70.4922 202.125 70.6012 202.506 70.8193C202.887 71.0374 203.185 71.3548 203.399 71.7715C203.614 72.1882 203.722 72.6927 203.722 73.2852ZM199.801 73.2852C199.801 73.679 199.848 74.016 199.942 74.2959C200.04 74.5758 200.19 74.7907 200.392 74.9404C200.593 75.0869 200.854 75.1602 201.173 75.1602C201.492 75.1602 201.752 75.0869 201.954 74.9404C202.156 74.7907 202.304 74.5758 202.398 74.2959C202.493 74.016 202.54 73.679 202.54 73.2852C202.54 72.8913 202.493 72.5576 202.398 72.2842C202.304 72.0075 202.156 71.7975 201.954 71.6543C201.752 71.5078 201.49 71.4346 201.168 71.4346C200.693 71.4346 200.346 71.5941 200.128 71.9131C199.91 72.2321 199.801 72.6895 199.801 73.2852ZM210.411 70.4922C211.052 70.4922 211.567 70.7266 211.954 71.1953C212.345 71.6641 212.54 72.3607 212.54 73.2852C212.54 73.8971 212.449 74.4131 212.267 74.833C212.088 75.2497 211.835 75.5654 211.51 75.7803C211.188 75.9919 210.812 76.0977 210.382 76.0977C210.108 76.0977 209.871 76.0618 209.669 75.9902C209.467 75.9186 209.295 75.8258 209.151 75.7119C209.008 75.5947 208.888 75.4678 208.79 75.3311H208.722C208.738 75.4613 208.753 75.6061 208.766 75.7656C208.782 75.9219 208.79 76.0651 208.79 76.1953V78.3975H207.638V70.5947H208.575L208.736 71.3418H208.79C208.891 71.1888 209.013 71.0472 209.156 70.917C209.303 70.7868 209.479 70.6842 209.684 70.6094C209.892 70.5312 210.134 70.4922 210.411 70.4922ZM210.104 71.4297C209.788 71.4297 209.534 71.4932 209.342 71.6201C209.153 71.7438 209.015 71.931 208.927 72.1816C208.842 72.4323 208.797 72.7464 208.79 73.124V73.2852C208.79 73.6855 208.831 74.0257 208.912 74.3057C208.997 74.5824 209.135 74.7939 209.327 74.9404C209.522 75.0837 209.786 75.1553 210.118 75.1553C210.398 75.1553 210.629 75.0788 210.812 74.9258C210.997 74.7728 211.135 74.5547 211.227 74.2715C211.318 73.9883 211.363 73.6546 211.363 73.2705C211.363 72.6878 211.259 72.2354 211.051 71.9131C210.846 71.5908 210.53 71.4297 210.104 71.4297ZM216.607 70.4922C216.699 70.4922 216.798 70.4971 216.905 70.5068C217.013 70.5166 217.105 70.5296 217.184 70.5459L217.076 71.6201C217.008 71.6006 216.923 71.5859 216.822 71.5762C216.725 71.5664 216.637 71.5615 216.559 71.5615C216.354 71.5615 216.158 71.5957 215.973 71.6641C215.787 71.7292 215.623 71.8301 215.479 71.9668C215.336 72.1003 215.224 72.2679 215.143 72.4697C215.061 72.6715 215.021 72.9059 215.021 73.1729V76H213.868V70.5947H214.767L214.923 71.5469H214.977C215.084 71.3548 215.217 71.179 215.377 71.0195C215.536 70.86 215.719 70.7331 215.924 70.6387C216.132 70.541 216.36 70.4922 216.607 70.4922ZM219.332 70.5947V76H218.185V70.5947H219.332ZM218.766 68.5244C218.941 68.5244 219.093 68.5716 219.22 68.666C219.35 68.7604 219.415 68.9232 219.415 69.1543C219.415 69.3822 219.35 69.5449 219.22 69.6426C219.093 69.737 218.941 69.7842 218.766 69.7842C218.583 69.7842 218.429 69.737 218.302 69.6426C218.178 69.5449 218.116 69.3822 218.116 69.1543C218.116 68.9232 218.178 68.7604 218.302 68.666C218.429 68.5716 218.583 68.5244 218.766 68.5244ZM222.213 76L220.157 70.5947H221.373L222.486 73.7686C222.558 73.9704 222.623 74.1885 222.682 74.4229C222.74 74.6572 222.781 74.8542 222.804 75.0137H222.843C222.866 74.8477 222.91 74.6491 222.975 74.418C223.04 74.1836 223.106 73.9671 223.175 73.7686L224.288 70.5947H225.499L223.443 76H222.213ZM228.438 70.4922C229.122 70.4922 229.638 70.6436 229.986 70.9463C230.338 71.249 230.514 71.721 230.514 72.3623V76H229.698L229.479 75.2334H229.439C229.286 75.4287 229.129 75.5898 228.966 75.7168C228.803 75.8438 228.614 75.9382 228.399 76C228.188 76.0651 227.929 76.0977 227.623 76.0977C227.301 76.0977 227.013 76.0391 226.759 75.9219C226.505 75.8014 226.305 75.6191 226.158 75.375C226.012 75.1309 225.938 74.8216 225.938 74.4473C225.938 73.8906 226.145 73.4723 226.559 73.1924C226.975 72.9124 227.604 72.7578 228.443 72.7285L229.381 72.6943V72.4111C229.381 72.0368 229.293 71.7699 229.117 71.6104C228.945 71.4508 228.701 71.3711 228.385 71.3711C228.115 71.3711 227.853 71.4102 227.599 71.4883C227.345 71.5664 227.097 71.6624 226.856 71.7764L226.485 70.9658C226.749 70.8258 227.049 70.7119 227.384 70.624C227.722 70.5361 228.074 70.4922 228.438 70.4922ZM229.376 73.417L228.678 73.4414C228.105 73.4609 227.703 73.5586 227.472 73.7344C227.241 73.9102 227.125 74.151 227.125 74.457C227.125 74.724 227.205 74.9193 227.364 75.043C227.524 75.1634 227.734 75.2236 227.994 75.2236C228.391 75.2236 228.72 75.1113 228.98 74.8867C229.244 74.6589 229.376 74.3252 229.376 73.8857V73.417ZM233.937 76.0977C233.292 76.0977 232.774 75.8633 232.384 75.3945C231.996 74.9225 231.803 74.2275 231.803 73.3096C231.803 72.3818 232 71.6803 232.394 71.2051C232.791 70.7298 233.313 70.4922 233.961 70.4922C234.234 70.4922 234.474 70.5296 234.679 70.6045C234.884 70.6761 235.06 70.7738 235.206 70.8975C235.356 71.0212 235.483 71.1595 235.587 71.3125H235.641C235.624 71.2116 235.605 71.0667 235.582 70.8779C235.562 70.6859 235.553 70.5085 235.553 70.3457V68.4023H236.705V76H235.807L235.602 75.2627H235.553C235.455 75.4189 235.331 75.5605 235.182 75.6875C235.035 75.8112 234.859 75.9105 234.654 75.9854C234.452 76.0602 234.213 76.0977 233.937 76.0977ZM234.259 75.165C234.75 75.165 235.097 75.0234 235.299 74.7402C235.501 74.457 235.605 74.0322 235.611 73.4658V73.3145C235.611 72.709 235.514 72.2451 235.318 71.9229C235.123 71.5973 234.767 71.4346 234.249 71.4346C233.836 71.4346 233.52 71.6022 233.302 71.9375C233.087 72.2695 232.979 72.7334 232.979 73.3291C232.979 73.9248 233.087 74.3805 233.302 74.6963C233.52 75.0088 233.839 75.165 234.259 75.165ZM243.136 73.2852C243.136 73.7344 243.077 74.1331 242.96 74.4814C242.843 74.8298 242.672 75.1243 242.447 75.3652C242.223 75.6029 241.952 75.7852 241.637 75.9121C241.321 76.0358 240.965 76.0977 240.567 76.0977C240.196 76.0977 239.856 76.0358 239.547 75.9121C239.238 75.7852 238.969 75.6029 238.741 75.3652C238.517 75.1243 238.342 74.8298 238.219 74.4814C238.095 74.1331 238.033 73.7344 238.033 73.2852C238.033 72.6895 238.136 72.1849 238.341 71.7715C238.549 71.3548 238.845 71.0374 239.229 70.8193C239.614 70.6012 240.071 70.4922 240.602 70.4922C241.1 70.4922 241.539 70.6012 241.92 70.8193C242.301 71.0374 242.599 71.3548 242.813 71.7715C243.028 72.1882 243.136 72.6927 243.136 73.2852ZM239.215 73.2852C239.215 73.679 239.262 74.016 239.356 74.2959C239.454 74.5758 239.604 74.7907 239.806 74.9404C240.007 75.0869 240.268 75.1602 240.587 75.1602C240.906 75.1602 241.166 75.0869 241.368 74.9404C241.57 74.7907 241.718 74.5758 241.812 74.2959C241.907 74.016 241.954 73.679 241.954 73.2852C241.954 72.8913 241.907 72.5576 241.812 72.2842C241.718 72.0075 241.57 71.7975 241.368 71.6543C241.166 71.5078 240.904 71.4346 240.582 71.4346C240.107 71.4346 239.76 71.5941 239.542 71.9131C239.324 72.2321 239.215 72.6895 239.215 73.2852Z" fill="#057C36"/>
<path d="M284.91 76H283.733V69.8574H281.644V68.8613H286.995V69.8574H284.91V76ZM293.382 68.8613L290.887 76H289.646L287.151 68.8613H288.353L289.856 73.334C289.902 73.4642 289.951 73.6221 290.003 73.8076C290.058 73.9932 290.109 74.1803 290.154 74.3691C290.203 74.5579 290.241 74.7256 290.267 74.8721C290.293 74.7256 290.328 74.5579 290.374 74.3691C290.423 74.1803 290.473 73.9932 290.525 73.8076C290.577 73.6221 290.626 73.4626 290.672 73.3291L292.181 68.8613H293.382ZM293.733 73.8027V72.8311H296.253V73.8027H293.733ZM305.984 68.8613L304.119 76H302.84L301.648 71.7227C301.619 71.6185 301.587 71.4948 301.551 71.3516C301.515 71.2083 301.479 71.0618 301.443 70.9121C301.411 70.7624 301.382 70.6257 301.355 70.502C301.333 70.375 301.316 70.2773 301.307 70.209C301.3 70.2773 301.285 70.3734 301.263 70.4971C301.24 70.6208 301.212 70.7575 301.18 70.9072C301.15 71.0537 301.118 71.2002 301.082 71.3467C301.046 71.4899 301.014 71.6169 300.984 71.7275L299.812 76H298.538L296.678 68.8613H297.854L298.885 73.0459C298.917 73.1794 298.95 73.3242 298.982 73.4805C299.018 73.6335 299.051 73.7881 299.08 73.9443C299.113 74.1006 299.142 74.2536 299.168 74.4033C299.194 74.5498 299.215 74.6833 299.231 74.8037C299.248 74.68 299.269 74.5433 299.295 74.3936C299.321 74.2406 299.349 74.0859 299.378 73.9297C299.41 73.7702 299.443 73.6172 299.476 73.4707C299.511 73.3242 299.547 73.1924 299.583 73.0752L300.745 68.8613H301.888L303.074 73.0898C303.11 73.2103 303.144 73.3454 303.177 73.4951C303.213 73.6449 303.247 73.7979 303.279 73.9541C303.312 74.1104 303.341 74.2617 303.367 74.4082C303.393 74.5547 303.414 74.6865 303.431 74.8037C303.453 74.6442 303.483 74.4619 303.519 74.2568C303.554 74.0518 303.595 73.8434 303.641 73.6318C303.686 73.4202 303.732 73.2249 303.777 73.0459L304.803 68.8613H305.984ZM306.995 76V68.8613H308.167V76H306.995ZM311.214 76H310.052V68.8613H314.085V69.8477H311.214V72.0742H313.899V73.0557H311.214V76ZM315.384 76V68.8613H316.556V76H315.384Z" fill="#057C36"/>
<path d="M358.54 76V68.8613H359.712V75.0039H362.744V76H358.54ZM365.981 70.4922C366.665 70.4922 367.181 70.6436 367.529 70.9463C367.881 71.249 368.057 71.721 368.057 72.3623V76H367.241L367.021 75.2334H366.982C366.829 75.4287 366.672 75.5898 366.509 75.7168C366.346 75.8438 366.157 75.9382 365.942 76C365.731 76.0651 365.472 76.0977 365.166 76.0977C364.844 76.0977 364.556 76.0391 364.302 75.9219C364.048 75.8014 363.848 75.6191 363.701 75.375C363.555 75.1309 363.481 74.8216 363.481 74.4473C363.481 73.8906 363.688 73.4723 364.102 73.1924C364.518 72.9124 365.146 72.7578 365.986 72.7285L366.924 72.6943V72.4111C366.924 72.0368 366.836 71.7699 366.66 71.6104C366.488 71.4508 366.243 71.3711 365.928 71.3711C365.658 71.3711 365.396 71.4102 365.142 71.4883C364.888 71.5664 364.64 71.6624 364.399 71.7764L364.028 70.9658C364.292 70.8258 364.591 70.7119 364.927 70.624C365.265 70.5361 365.617 70.4922 365.981 70.4922ZM366.919 73.417L366.221 73.4414C365.648 73.4609 365.246 73.5586 365.015 73.7344C364.784 73.9102 364.668 74.151 364.668 74.457C364.668 74.724 364.748 74.9193 364.907 75.043C365.067 75.1634 365.277 75.2236 365.537 75.2236C365.934 75.2236 366.263 75.1113 366.523 74.8867C366.787 74.6589 366.919 74.3252 366.919 73.8857V73.417ZM370.898 76L368.843 70.5947H370.059L371.172 73.7686C371.243 73.9704 371.309 74.1885 371.367 74.4229C371.426 74.6572 371.466 74.8542 371.489 75.0137H371.528C371.551 74.8477 371.595 74.6491 371.66 74.418C371.725 74.1836 371.792 73.9671 371.86 73.7686L372.974 70.5947H374.185L372.129 76H370.898ZM377.124 70.4922C377.808 70.4922 378.324 70.6436 378.672 70.9463C379.023 71.249 379.199 71.721 379.199 72.3623V76H378.384L378.164 75.2334H378.125C377.972 75.4287 377.814 75.5898 377.651 75.7168C377.489 75.8438 377.3 75.9382 377.085 76C376.873 76.0651 376.615 76.0977 376.309 76.0977C375.986 76.0977 375.698 76.0391 375.444 75.9219C375.19 75.8014 374.99 75.6191 374.844 75.375C374.697 75.1309 374.624 74.8216 374.624 74.4473C374.624 73.8906 374.831 73.4723 375.244 73.1924C375.661 72.9124 376.289 72.7578 377.129 72.7285L378.066 72.6943V72.4111C378.066 72.0368 377.979 71.7699 377.803 71.6104C377.63 71.4508 377.386 71.3711 377.07 71.3711C376.8 71.3711 376.538 71.4102 376.284 71.4883C376.03 71.5664 375.783 71.6624 375.542 71.7764L375.171 70.9658C375.435 70.8258 375.734 70.7119 376.069 70.624C376.408 70.5361 376.759 70.4922 377.124 70.4922ZM378.062 73.417L377.363 73.4414C376.79 73.4609 376.388 73.5586 376.157 73.7344C375.926 73.9102 375.811 74.151 375.811 74.457C375.811 74.724 375.89 74.9193 376.05 75.043C376.209 75.1634 376.419 75.2236 376.68 75.2236C377.077 75.2236 377.406 75.1113 377.666 74.8867C377.93 74.6589 378.062 74.3252 378.062 73.8857V73.417ZM382.622 76.0977C381.978 76.0977 381.46 75.8633 381.069 75.3945C380.682 74.9225 380.488 74.2275 380.488 73.3096C380.488 72.3818 380.685 71.6803 381.079 71.2051C381.476 70.7298 381.999 70.4922 382.646 70.4922C382.92 70.4922 383.159 70.5296 383.364 70.6045C383.569 70.6761 383.745 70.7738 383.892 70.8975C384.041 71.0212 384.168 71.1595 384.272 71.3125H384.326C384.31 71.2116 384.29 71.0667 384.268 70.8779C384.248 70.6859 384.238 70.5085 384.238 70.3457V68.4023H385.391V76H384.492L384.287 75.2627H384.238C384.141 75.4189 384.017 75.5605 383.867 75.6875C383.721 75.8112 383.545 75.9105 383.34 75.9854C383.138 76.0602 382.899 76.0977 382.622 76.0977ZM382.944 75.165C383.436 75.165 383.783 75.0234 383.984 74.7402C384.186 74.457 384.29 74.0322 384.297 73.4658V73.3145C384.297 72.709 384.199 72.2451 384.004 71.9229C383.809 71.5973 383.452 71.4346 382.935 71.4346C382.521 71.4346 382.205 71.6022 381.987 71.9375C381.772 72.2695 381.665 72.7334 381.665 73.3291C381.665 73.9248 381.772 74.3805 381.987 74.6963C382.205 75.0088 382.524 75.165 382.944 75.165ZM389.189 70.4922C389.671 70.4922 390.085 70.5915 390.43 70.79C390.775 70.9886 391.04 71.2702 391.226 71.6348C391.411 71.9993 391.504 72.4355 391.504 72.9434V73.5586H387.896C387.909 74.0827 388.049 74.4863 388.315 74.7695C388.586 75.0527 388.963 75.1943 389.448 75.1943C389.793 75.1943 390.103 75.1618 390.376 75.0967C390.653 75.0283 390.938 74.929 391.23 74.7988V75.7314C390.96 75.8584 390.685 75.9512 390.405 76.0098C390.125 76.0684 389.79 76.0977 389.399 76.0977C388.869 76.0977 388.402 75.9951 387.998 75.79C387.598 75.5817 387.284 75.2725 387.056 74.8623C386.831 74.4521 386.719 73.9427 386.719 73.334C386.719 72.7285 386.821 72.2142 387.026 71.791C387.231 71.3678 387.52 71.0456 387.891 70.8242C388.262 70.6029 388.695 70.4922 389.189 70.4922ZM389.189 71.3564C388.828 71.3564 388.535 71.4736 388.311 71.708C388.089 71.9424 387.959 72.2858 387.92 72.7383H390.381C390.378 72.4681 390.332 72.2288 390.244 72.0205C390.16 71.8122 390.029 71.6494 389.854 71.5322C389.681 71.415 389.46 71.3564 389.189 71.3564ZM395.537 70.4922C395.628 70.4922 395.728 70.4971 395.835 70.5068C395.942 70.5166 396.035 70.5296 396.113 70.5459L396.006 71.6201C395.938 71.6006 395.853 71.5859 395.752 71.5762C395.654 71.5664 395.566 71.5615 395.488 71.5615C395.283 71.5615 395.088 71.5957 394.902 71.6641C394.717 71.7292 394.552 71.8301 394.409 71.9668C394.266 72.1003 394.154 72.2679 394.072 72.4697C393.991 72.6715 393.95 72.9059 393.95 73.1729V76H392.798V70.5947H393.696L393.853 71.5469H393.906C394.014 71.3548 394.147 71.179 394.307 71.0195C394.466 70.86 394.648 70.7331 394.854 70.6387C395.062 70.541 395.29 70.4922 395.537 70.4922ZM401.899 73.2852C401.899 73.7344 401.841 74.1331 401.724 74.4814C401.606 74.8298 401.436 75.1243 401.211 75.3652C400.986 75.6029 400.716 75.7852 400.4 75.9121C400.085 76.0358 399.728 76.0977 399.331 76.0977C398.96 76.0977 398.62 76.0358 398.311 75.9121C398.001 75.7852 397.733 75.6029 397.505 75.3652C397.28 75.1243 397.106 74.8298 396.982 74.4814C396.859 74.1331 396.797 73.7344 396.797 73.2852C396.797 72.6895 396.899 72.1849 397.104 71.7715C397.313 71.3548 397.609 71.0374 397.993 70.8193C398.377 70.6012 398.835 70.4922 399.365 70.4922C399.863 70.4922 400.303 70.6012 400.684 70.8193C401.064 71.0374 401.362 71.3548 401.577 71.7715C401.792 72.1882 401.899 72.6927 401.899 73.2852ZM397.979 73.2852C397.979 73.679 398.026 74.016 398.12 74.2959C398.218 74.5758 398.368 74.7907 398.569 74.9404C398.771 75.0869 399.032 75.1602 399.351 75.1602C399.67 75.1602 399.93 75.0869 400.132 74.9404C400.334 74.7907 400.482 74.5758 400.576 74.2959C400.671 74.016 400.718 73.679 400.718 73.2852C400.718 72.8913 400.671 72.5576 400.576 72.2842C400.482 72.0075 400.334 71.7975 400.132 71.6543C399.93 71.5078 399.668 71.4346 399.346 71.4346C398.87 71.4346 398.524 71.5941 398.306 71.9131C398.088 72.2321 397.979 72.6895 397.979 73.2852Z" fill="#057C36"/>
<path d="M439.695 76H438.519V69.8574H436.429V68.8613H441.78V69.8574H439.695V76ZM444.91 70.4922C445.392 70.4922 445.805 70.5915 446.15 70.79C446.495 70.9886 446.761 71.2702 446.946 71.6348C447.132 71.9993 447.225 72.4355 447.225 72.9434V73.5586H443.616C443.629 74.0827 443.769 74.4863 444.036 74.7695C444.306 75.0527 444.684 75.1943 445.169 75.1943C445.514 75.1943 445.823 75.1618 446.097 75.0967C446.373 75.0283 446.658 74.929 446.951 74.7988V75.7314C446.681 75.8584 446.406 75.9512 446.126 76.0098C445.846 76.0684 445.511 76.0977 445.12 76.0977C444.59 76.0977 444.122 75.9951 443.719 75.79C443.318 75.5817 443.004 75.2725 442.776 74.8623C442.552 74.4521 442.439 73.9427 442.439 73.334C442.439 72.7285 442.542 72.2142 442.747 71.791C442.952 71.3678 443.24 71.0456 443.611 70.8242C443.982 70.6029 444.415 70.4922 444.91 70.4922ZM444.91 71.3564C444.549 71.3564 444.256 71.4736 444.031 71.708C443.81 71.9424 443.68 72.2858 443.641 72.7383H446.102C446.098 72.4681 446.053 72.2288 445.965 72.0205C445.88 71.8122 445.75 71.6494 445.574 71.5322C445.402 71.415 445.18 71.3564 444.91 71.3564ZM451.258 70.4922C451.349 70.4922 451.448 70.4971 451.556 70.5068C451.663 70.5166 451.756 70.5296 451.834 70.5459L451.727 71.6201C451.658 71.6006 451.574 71.5859 451.473 71.5762C451.375 71.5664 451.287 71.5615 451.209 71.5615C451.004 71.5615 450.809 71.5957 450.623 71.6641C450.438 71.7292 450.273 71.8301 450.13 71.9668C449.987 72.1003 449.874 72.2679 449.793 72.4697C449.712 72.6715 449.671 72.9059 449.671 73.1729V76H448.519V70.5947H449.417L449.573 71.5469H449.627C449.734 71.3548 449.868 71.179 450.027 71.0195C450.187 70.86 450.369 70.7331 450.574 70.6387C450.783 70.541 451.01 70.4922 451.258 70.4922ZM455.574 70.4922C455.665 70.4922 455.765 70.4971 455.872 70.5068C455.979 70.5166 456.072 70.5296 456.15 70.5459L456.043 71.6201C455.975 71.6006 455.89 71.5859 455.789 71.5762C455.691 71.5664 455.604 71.5615 455.525 71.5615C455.32 71.5615 455.125 71.5957 454.939 71.6641C454.754 71.7292 454.59 71.8301 454.446 71.9668C454.303 72.1003 454.191 72.2679 454.109 72.4697C454.028 72.6715 453.987 72.9059 453.987 73.1729V76H452.835V70.5947H453.733L453.89 71.5469H453.943C454.051 71.3548 454.184 71.179 454.344 71.0195C454.503 70.86 454.686 70.7331 454.891 70.6387C455.099 70.541 455.327 70.4922 455.574 70.4922ZM459.271 70.4922C459.954 70.4922 460.47 70.6436 460.818 70.9463C461.17 71.249 461.346 71.721 461.346 72.3623V76H460.53L460.311 75.2334H460.271C460.118 75.4287 459.961 75.5898 459.798 75.7168C459.635 75.8438 459.446 75.9382 459.231 76C459.02 76.0651 458.761 76.0977 458.455 76.0977C458.133 76.0977 457.845 76.0391 457.591 75.9219C457.337 75.8014 457.137 75.6191 456.99 75.375C456.844 75.1309 456.771 74.8216 456.771 74.4473C456.771 73.8906 456.977 73.4723 457.391 73.1924C457.807 72.9124 458.436 72.7578 459.275 72.7285L460.213 72.6943V72.4111C460.213 72.0368 460.125 71.7699 459.949 71.6104C459.777 71.4508 459.533 71.3711 459.217 71.3711C458.947 71.3711 458.685 71.4102 458.431 71.4883C458.177 71.5664 457.929 71.6624 457.688 71.7764L457.317 70.9658C457.581 70.8258 457.881 70.7119 458.216 70.624C458.554 70.5361 458.906 70.4922 459.271 70.4922ZM460.208 73.417L459.51 73.4414C458.937 73.4609 458.535 73.5586 458.304 73.7344C458.073 73.9102 457.957 74.151 457.957 74.457C457.957 74.724 458.037 74.9193 458.196 75.043C458.356 75.1634 458.566 75.2236 458.826 75.2236C459.223 75.2236 459.552 75.1113 459.812 74.8867C460.076 74.6589 460.208 74.3252 460.208 73.8857V73.417ZM466.57 76H462.464V75.292L465.193 71.4785H462.63V70.5947H466.492V71.376L463.816 75.1162H466.57V76ZM469.856 70.4922C470.54 70.4922 471.056 70.6436 471.404 70.9463C471.756 71.249 471.932 71.721 471.932 72.3623V76H471.116L470.896 75.2334H470.857C470.704 75.4287 470.547 75.5898 470.384 75.7168C470.221 75.8438 470.032 75.9382 469.817 76C469.606 76.0651 469.347 76.0977 469.041 76.0977C468.719 76.0977 468.431 76.0391 468.177 75.9219C467.923 75.8014 467.723 75.6191 467.576 75.375C467.43 75.1309 467.356 74.8216 467.356 74.4473C467.356 73.8906 467.563 73.4723 467.977 73.1924C468.393 72.9124 469.021 72.7578 469.861 72.7285L470.799 72.6943V72.4111C470.799 72.0368 470.711 71.7699 470.535 71.6104C470.363 71.4508 470.118 71.3711 469.803 71.3711C469.533 71.3711 469.271 71.4102 469.017 71.4883C468.763 71.5664 468.515 71.6624 468.274 71.7764L467.903 70.9658C468.167 70.8258 468.466 70.7119 468.802 70.624C469.14 70.5361 469.492 70.4922 469.856 70.4922ZM470.794 73.417L470.096 73.4414C469.523 73.4609 469.121 73.5586 468.89 73.7344C468.659 73.9102 468.543 74.151 468.543 74.457C468.543 74.724 468.623 74.9193 468.782 75.043C468.942 75.1634 469.152 75.2236 469.412 75.2236C469.809 75.2236 470.138 75.1113 470.398 74.8867C470.662 74.6589 470.794 74.3252 470.794 73.8857V73.417Z" fill="#057C36"/>
<path d="M546.054 68.8613L544.188 76H542.909L541.718 71.7227C541.688 71.6185 541.656 71.4948 541.62 71.3516C541.584 71.2083 541.549 71.0618 541.513 70.9121C541.48 70.7624 541.451 70.6257 541.425 70.502C541.402 70.375 541.386 70.2773 541.376 70.209C541.369 70.2773 541.355 70.3734 541.332 70.4971C541.309 70.6208 541.282 70.7575 541.249 70.9072C541.22 71.0537 541.187 71.2002 541.151 71.3467C541.116 71.4899 541.083 71.6169 541.054 71.7275L539.882 76H538.607L536.747 68.8613H537.924L538.954 73.0459C538.987 73.1794 539.019 73.3242 539.052 73.4805C539.088 73.6335 539.12 73.7881 539.149 73.9443C539.182 74.1006 539.211 74.2536 539.237 74.4033C539.263 74.5498 539.285 74.6833 539.301 74.8037C539.317 74.68 539.338 74.5433 539.364 74.3936C539.39 74.2406 539.418 74.0859 539.447 73.9297C539.48 73.7702 539.512 73.6172 539.545 73.4707C539.581 73.3242 539.617 73.1924 539.652 73.0752L540.814 68.8613H541.957L543.144 73.0898C543.179 73.2103 543.214 73.3454 543.246 73.4951C543.282 73.6449 543.316 73.7979 543.349 73.9541C543.381 74.1104 543.41 74.2617 543.437 74.4082C543.463 74.5547 543.484 74.6865 543.5 74.8037C543.523 74.6442 543.552 74.4619 543.588 74.2568C543.624 74.0518 543.664 73.8434 543.71 73.6318C543.756 73.4202 543.801 73.2249 543.847 73.0459L544.872 68.8613H546.054ZM548.095 70.5947V76H546.947V70.5947H548.095ZM547.528 68.5244C547.704 68.5244 547.855 68.5716 547.982 68.666C548.113 68.7604 548.178 68.9232 548.178 69.1543C548.178 69.3822 548.113 69.5449 547.982 69.6426C547.855 69.737 547.704 69.7842 547.528 69.7842C547.346 69.7842 547.191 69.737 547.064 69.6426C546.941 69.5449 546.879 69.3822 546.879 69.1543C546.879 68.9232 546.941 68.7604 547.064 68.666C547.191 68.5716 547.346 68.5244 547.528 68.5244ZM552.44 71.4688H551.127V76H549.979V71.4688H549.096V70.917L549.979 70.5801V70.2041C549.979 69.7451 550.051 69.3805 550.194 69.1104C550.341 68.8402 550.549 68.6465 550.819 68.5293C551.093 68.4089 551.418 68.3486 551.796 68.3486C552.043 68.3486 552.27 68.3698 552.475 68.4121C552.68 68.4512 552.852 68.4967 552.992 68.5488L552.694 69.418C552.584 69.3822 552.46 69.3496 552.323 69.3203C552.187 69.2878 552.04 69.2715 551.884 69.2715C551.623 69.2715 551.431 69.3529 551.308 69.5156C551.187 69.6784 551.127 69.916 551.127 70.2285V70.5947H552.44V71.4688ZM554.506 70.5947V76H553.358V70.5947H554.506ZM553.939 68.5244C554.115 68.5244 554.267 68.5716 554.394 68.666C554.524 68.7604 554.589 68.9232 554.589 69.1543C554.589 69.3822 554.524 69.5449 554.394 69.6426C554.267 69.737 554.115 69.7842 553.939 69.7842C553.757 69.7842 553.603 69.737 553.476 69.6426C553.352 69.5449 553.29 69.3822 553.29 69.1543C553.29 68.9232 553.352 68.7604 553.476 68.666C553.603 68.5716 553.757 68.5244 553.939 68.5244Z" fill="#057C36"/>
<path fill-rule="evenodd" clip-rule="evenodd" d="M47.2081 26.338C50.0178 26.338 52.2952 28.6176 52.2952 31.4299C52.2952 34.2422 50.0177 36.5218 47.2081 36.5218C44.3984 36.5218 42.121 34.2422 42.121 31.4299C42.121 28.6176 44.3985 26.338 47.2081 26.338ZM58.8023 22.2715C61.612 22.2715 63.8893 24.5516 63.8893 27.364C63.8893 30.1763 61.6119 32.4559 58.8023 32.4559C55.9925 32.4559 53.7152 30.1763 53.7152 27.364C53.7152 24.5516 55.9926 22.2715 58.8023 22.2715V22.2715ZM58.118 46.205H68.0096V43.4549C68.0096 38.3857 63.8663 34.2381 58.8022 34.2381C55.9911 34.2381 53.4645 35.5164 51.7722 37.5203C55.1749 39.0868 57.6539 42.3455 58.118 46.2051V46.205ZM38 50.2715H56.4147V47.5208C56.4147 42.4517 52.2714 38.3047 47.2073 38.3047C42.143 38.3047 38 42.4519 38 47.5208V50.2715V50.2715Z" fill="#057C36"/>
<path fill-rule="evenodd" clip-rule="evenodd" d="M117.027 22H145.992V34.2828C144.811 33.7489 143.437 33.4506 141.958 33.3327V28.2272C141.958 28.0274 141.82 27.8545 141.625 27.8107C140.859 27.6395 140.141 27.811 139.493 27.9962C138.846 28.1808 138.254 28.3767 137.737 28.3767C137.151 28.3767 136.539 28.1575 135.865 27.959C135.19 27.7601 134.433 27.5871 133.611 27.8163C133.426 27.8678 133.298 28.0358 133.298 28.2272V33.2723H129.722V28.2272H129.721C129.721 28.0274 129.583 27.8542 129.388 27.8107C128.62 27.6395 127.901 27.811 127.253 27.9962C126.605 28.1811 126.014 28.3767 125.5 28.3767C124.911 28.3767 124.299 28.1575 123.624 27.959C122.95 27.7601 122.194 27.5868 121.373 27.8163C121.189 27.8678 121.061 28.0358 121.061 28.2272V33.3336C119.583 33.4527 118.209 33.7525 117.027 34.2876L117.027 22Z" fill="#057C36"/>
<path fill-rule="evenodd" clip-rule="evenodd" d="M122.146 28.5611C122.544 28.5546 122.945 28.6492 123.383 28.7782C124.019 28.9657 124.711 29.231 125.5 29.231C126.215 29.231 126.87 28.9937 127.487 28.8178C127.977 28.6781 128.433 28.5763 128.868 28.5998V33.273H122.636C122.394 33.273 122.153 33.2772 121.915 33.2855V28.5772C121.992 28.568 122.069 28.5626 122.146 28.5611L122.146 28.5611Z" fill="#057C36"/>
<path fill-rule="evenodd" clip-rule="evenodd" d="M134.385 28.5611C134.783 28.5546 135.186 28.6492 135.623 28.7782C136.259 28.9657 136.949 29.231 137.737 29.231C138.454 29.231 139.11 28.9937 139.727 28.8178C140.217 28.6781 140.672 28.5766 141.105 28.5998V33.285C140.87 33.2769 140.634 33.273 140.396 33.273H134.152V28.5775C134.229 28.568 134.307 28.5627 134.384 28.5615L134.385 28.5611Z" fill="#057C36"/>
<path fill-rule="evenodd" clip-rule="evenodd" d="M122.636 34.1267H140.397C142.837 34.1267 145.021 34.5659 146.553 35.5549C147.991 36.483 148.893 37.8609 149 39.9697H114.021C114.128 37.8612 115.034 36.4833 116.475 35.5549C118.011 34.5656 120.199 34.1264 122.637 34.1264L122.636 34.1267Z" fill="#057C36"/>
<path fill-rule="evenodd" clip-rule="evenodd" d="M114.01 40.8233H149.01V47.7081H114.01V40.8233Z" fill="#057C36"/>
<path fill-rule="evenodd" clip-rule="evenodd" d="M116.526 48.6869C116.412 48.6854 116.303 48.7825 116.222 48.9567C116.141 49.1308 116.096 49.3678 116.096 49.6149C116.096 49.8621 116.141 50.0991 116.222 50.2732C116.303 50.4474 116.412 50.5445 116.526 50.543H120.794H120.794C120.907 50.5445 121.017 50.4474 121.097 50.2732C121.178 50.099 121.223 49.8621 121.223 49.6149C121.223 49.3678 121.178 49.1308 121.097 48.9567C121.017 48.7825 120.907 48.6854 120.794 48.6869H116.525H116.526Z" fill="#057C36"/>
<path fill-rule="evenodd" clip-rule="evenodd" d="M142.225 48.6869C142.112 48.6854 142.002 48.7825 141.922 48.9567C141.841 49.1308 141.796 49.3678 141.796 49.6149C141.796 49.8621 141.841 50.0991 141.922 50.2732C142.002 50.4474 142.112 50.5445 142.225 50.543H146.494C146.607 50.5445 146.716 50.4474 146.797 50.2732C146.878 50.099 146.923 49.8621 146.923 49.6149C146.923 49.3678 146.878 49.1308 146.797 48.9567C146.716 48.7825 146.607 48.6854 146.494 48.6869H142.225Z" fill="#057C36"/>
<g clip-path="url(#clip0_211_1038)">
<path d="M209.257 22.2715H208.442C208.17 22.2715 207.929 22.4827 207.929 22.7844V49.7586C207.929 50.0301 208.14 50.2715 208.442 50.2715H209.257C209.528 50.2715 209.77 50.0603 209.77 49.7586V22.7844C209.74 22.5129 209.528 22.2715 209.257 22.2715Z" fill="#057C36"/>
<path d="M220.905 25.0775C220.905 26.6276 219.649 27.8836 218.099 27.8836C216.549 27.8836 215.292 26.6271 215.292 25.0775C215.292 23.528 216.548 22.2715 218.099 22.2715C219.649 22.2715 220.905 23.528 220.905 25.0775" fill="#057C36"/>
<path d="M223.591 42.1551L221.931 38.4439H222.022C222.625 38.4439 223.078 37.9008 222.987 37.3275L221.298 29.7844C221.207 29.181 220.694 28.668 220.121 28.668H216.167C215.594 28.668 215.081 29.181 214.99 29.7844L213.3 37.3275C213.21 37.9008 213.663 38.4439 214.266 38.4439H214.357L212.697 42.1551C212.425 42.8189 212.787 43.181 213.331 43.181L216.107 43.2715L216.56 49.0948C216.62 49.7585 217.163 50.2715 217.797 50.2715H218.521C219.185 50.2715 219.728 49.7585 219.758 49.0948L220.211 43.2413L222.987 43.181C223.47 43.181 223.893 42.7893 223.591 42.1551V42.1551Z" fill="#057C36"/>
<path d="M202.437 28.6378L201.742 28.6077H197.638L196.914 28.6378C195.797 28.6982 194.952 29.6637 195.013 30.7499L195.405 37.237C195.465 38.0818 196.16 38.7154 196.974 38.7154H197.065L197.729 48.793C197.789 49.7284 198.332 50.2413 198.966 50.2413H200.264C200.928 50.2413 201.471 49.7284 201.501 48.793L202.165 38.7154H202.286C203.131 38.7154 203.825 38.0516 203.855 37.237L204.247 30.7499C204.398 29.6335 203.553 28.6982 202.437 28.6378V28.6378Z" fill="#057C36"/>
<path d="M202.467 25.0775C202.467 26.6276 201.21 27.8836 199.66 27.8836C198.11 27.8836 196.854 26.6271 196.854 25.0775C196.854 23.528 198.11 22.2715 199.66 22.2715C201.21 22.2715 202.467 23.528 202.467 25.0775Z" fill="#057C36"/>
</g>
<path fill-rule="evenodd" clip-rule="evenodd" d="M291.56 47.887H269.692V22.2715H316.978V47.887H295.111C296.314 48.3177 297.315 49.1728 297.933 50.2715H296.153C295.455 49.5085 294.451 49.0299 293.335 49.0299C292.22 49.0299 291.215 49.5085 290.518 50.2715H288.738C289.355 49.1728 290.356 48.3177 291.56 47.887H291.56ZM316.629 22.6184V47.5391H270.04V22.6184H316.629ZM315.986 23.1939H270.685V46.9636H315.986V23.1939Z" fill="#057C36"/>
<path d="M368.13 26.014H369.997C370.512 26.014 370.93 26.5294 370.93 26.9473C370.93 27.4627 370.512 27.8806 369.997 27.8806H368.13C367.615 27.8806 367.197 27.3652 367.197 26.9473C367.197 26.4319 367.615 26.014 368.13 26.014Z" fill="#057C36"/>
<path d="M388.514 50.2713H365.47C364.812 50.2738 364.179 50.0146 363.712 49.5507C363.245 49.0869 362.981 48.4565 362.978 47.798V24.7542C362.978 24.094 363.241 23.4613 363.709 22.9952C364.176 22.5294 364.81 22.269 365.47 22.2715H388.514C389.169 22.2765 389.796 22.5403 390.257 23.0053C390.719 23.4703 390.978 24.099 390.978 24.7542V32.0156C390.978 32.2631 390.88 32.5006 390.705 32.6756C390.53 32.8506 390.292 32.9489 390.045 32.9489C389.797 32.9489 389.56 32.8506 389.385 32.6756C389.21 32.5006 389.111 32.2631 389.111 32.0156V24.7542C389.112 24.4211 388.847 24.1482 388.514 24.1382H365.47C365.305 24.1357 365.146 24.1994 365.029 24.3153C364.911 24.4311 364.845 24.5892 364.845 24.7542V47.798C364.845 48.1382 365.121 48.4141 365.461 48.4141H388.514C388.678 48.4141 388.834 48.3491 388.95 48.2337C389.065 48.118 389.13 47.9614 389.13 47.798V40.5836C389.13 40.3359 389.229 40.0986 389.404 39.9236C389.579 39.7486 389.816 39.6503 390.064 39.6503C390.311 39.6503 390.549 39.7486 390.724 39.9236C390.899 40.0986 390.997 40.3359 390.997 40.5836V47.789V47.7888C390.997 48.4473 390.735 49.0788 390.27 49.5444C389.804 50.0098 389.173 50.2715 388.514 50.2715L388.514 50.2713Z" fill="#057C36"/>
<path d="M376.978 43.7379C374.998 43.7379 373.099 42.9513 371.698 41.5511C370.298 40.1506 369.511 38.2515 369.511 36.2713C369.511 34.291 370.298 32.3919 371.698 30.9915C373.099 29.5912 374.998 28.8046 376.978 28.8046C378.958 28.8046 380.858 29.5912 382.258 30.9915C383.658 32.3919 384.445 34.291 384.445 36.2713C384.445 38.2515 383.658 40.1506 382.258 41.5511C380.858 42.9513 378.958 43.7379 376.978 43.7379ZM376.978 30.6712C375.493 30.6712 374.069 31.2612 373.018 32.3115C371.968 33.3617 371.378 34.786 371.378 36.2713C371.378 37.7565 371.968 39.1809 373.018 40.2311C374.069 41.2812 375.493 41.8713 376.978 41.8713C378.463 41.8713 379.888 41.2813 380.938 40.2311C381.988 39.1808 382.578 37.7565 382.578 36.2713C382.578 34.786 381.988 33.3616 380.938 32.3115C379.888 31.2613 378.463 30.6712 376.978 30.6712V30.6712Z" fill="#057C36"/>
<g clip-path="url(#clip1_211_1038)">
<path d="M447.159 34.1842C447.126 34.1486 447.091 34.1148 447.055 34.0827C447.191 33.5622 447.067 32.9857 446.673 32.5648C446.195 32.0541 445.464 31.9269 444.86 32.1903C444.776 32.063 444.681 31.9411 444.573 31.8264C443.537 30.7195 441.804 30.6652 440.702 31.7054C440.061 32.3104 439.776 33.1538 439.852 33.9706C439.682 34.0578 439.523 34.169 439.377 34.3052C438.523 35.1113 438.48 36.461 439.283 37.3187C439.596 37.6523 439.99 37.8614 440.406 37.946C440.403 38.2965 440.528 38.648 440.786 38.9247C440.973 39.124 441.204 39.2548 441.45 39.3197L442.543 40.4176V42.4338H443.457V40.4176L444.468 39.4025C444.964 39.3491 445.448 39.1418 445.839 38.7716C446.437 38.2075 446.68 37.405 446.558 36.6487C446.752 36.5811 446.935 36.4734 447.094 36.3231C447.7 35.751 447.729 34.7927 447.159 34.1824V34.1842ZM442.566 39.1462C442.637 39.0999 442.706 39.0492 442.77 38.9887C442.782 38.9781 442.791 38.9656 442.802 38.9549C442.967 39.0777 443.144 39.1747 443.329 39.2503L442.999 39.5822L442.566 39.1462V39.1462Z" fill="#057C36"/>
<path d="M445.502 42.634H440.483C440.266 42.634 440.09 42.8101 440.09 43.0281L440.875 47.6485C440.875 47.8665 441.05 48.0427 441.268 48.0427H444.718C444.936 48.0427 445.111 47.8665 445.111 47.6485L445.896 43.0281C445.896 42.8101 445.72 42.634 445.503 42.634H445.502ZM444.236 47.5391L444.338 43.0815H444.924L444.236 47.5391Z" fill="#057C36"/>
<path d="M464.738 29.8405L455.608 28.2469L456.072 29.852L463.762 31.1938L464.738 29.8405Z" fill="#057C36"/>
<path d="M471.873 23.3072C471.708 22.9655 471.358 22.3578 470.915 22.2804C470.471 22.203 469.936 22.6585 469.667 22.9228C462.628 22.1567 456.313 25.7717 455.613 27.8982L483.434 32.7535C483.538 30.3681 478.775 24.9594 471.874 23.3072H471.873Z" fill="#057C36"/>
<path d="M469.652 32.2223L473.034 32.8122L474.01 31.4589L464.88 29.8654L465.344 31.4704L468.727 32.0603L465.919 48.2856H436.997V50.2715H472.885V48.2856H466.873L469.652 32.2223Z" fill="#057C36"/>
<path d="M474.615 33.088L482.305 34.4298L483.316 33.0818L474.151 31.4821L474.615 33.0871V33.088Z" fill="#057C36"/>
<path d="M452.645 42.0743C452.49 42.0743 452.364 41.948 452.364 41.7914V36.0766C452.364 35.9209 452.489 35.7946 452.645 35.7946H459.847C460.003 35.7946 460.129 35.9209 460.129 36.0766V41.7905C460.129 41.9471 460.003 42.0734 459.847 42.0734H452.645V42.0743Z" fill="#057C36"/>
<path d="M463.108 37.7956H461.076C460.921 37.7956 460.794 37.9219 460.794 38.0785V42.6794C460.781 42.6776 460.767 42.6749 460.753 42.6749H451.759V38.0785C451.759 37.9219 451.633 37.7956 451.477 37.7956H449.444C449.289 37.7956 449.163 37.9219 449.163 38.0785V47.7606C449.163 47.9163 449.288 48.0427 449.444 48.0427H451.477C451.632 48.0427 451.759 47.9163 451.759 47.7606V45.2809H460.753C460.767 45.2809 460.781 45.2792 460.794 45.2774V47.7606C460.794 47.9163 460.92 48.0427 461.076 48.0427H463.108C463.263 48.0427 463.39 47.9163 463.39 47.7606V38.0794C463.39 37.9228 463.264 37.7965 463.108 37.7965V37.7956ZM450.516 44.3307C450.321 44.3307 450.165 44.1723 450.165 43.9775C450.165 43.7826 450.321 43.6243 450.516 43.6243C450.711 43.6243 450.868 43.7817 450.868 43.9775C450.868 44.1732 450.711 44.3307 450.516 44.3307ZM462.053 44.3307C461.858 44.3307 461.701 44.1723 461.701 43.9775C461.701 43.7826 461.858 43.6243 462.053 43.6243C462.248 43.6243 462.405 43.7817 462.405 43.9775C462.405 44.1732 462.248 44.3307 462.053 44.3307Z" fill="#057C36"/>
</g>
<path d="M564.491 29.0602L562.522 31.5062C562.256 31.8363 561.772 31.8976 561.43 31.6442C557.271 28.5973 552.229 26.9517 547.049 26.9517C541.87 26.9517 536.827 28.5973 532.669 31.6442C532.327 31.8976 531.843 31.8363 531.576 31.5062L529.608 29.0602C529.475 28.8956 529.415 28.6847 529.443 28.4755C529.47 28.2667 529.582 28.0773 529.753 27.9512C534.744 24.2639 540.812 22.2715 547.047 22.2715C553.283 22.2715 559.35 24.2639 564.343 27.9512C564.514 28.0769 564.627 28.2655 564.655 28.4747C564.683 28.6835 564.624 28.8952 564.492 29.0602H564.491ZM558.432 35.2973C555.123 32.9274 551.14 31.6509 547.051 31.6509C542.963 31.6509 538.979 32.9273 535.671 35.2973C535.496 35.4218 535.379 35.612 535.349 35.8232C535.319 36.0344 535.379 36.2488 535.513 36.4159L537.482 38.8618V38.8614C537.743 39.1852 538.214 39.2516 538.556 39.013C541.036 37.2679 544.006 36.33 547.051 36.33C550.097 36.33 553.067 37.2679 555.546 39.013C555.889 39.2516 556.36 39.1852 556.621 38.8614L558.59 36.4155V36.4159C558.731 36.2484 558.794 36.0304 558.765 35.8144C558.736 35.5988 558.617 35.4047 558.436 35.2798L558.432 35.2973ZM552.499 42.6036C550.883 41.5519 548.989 40.991 547.053 40.991C545.118 40.991 543.224 41.5519 541.608 42.6036C541.423 42.7241 541.297 42.9155 541.262 43.1315C541.227 43.3474 541.285 43.5682 541.423 43.7397L546.435 49.9767C546.585 50.1629 546.812 50.2715 547.053 50.2715C547.294 50.2715 547.522 50.1629 547.672 49.9767L552.684 43.7397C552.821 43.5682 552.88 43.3474 552.845 43.1315C552.81 42.9155 552.684 42.7241 552.498 42.6036H552.499Z" fill="#057C36"/>
<defs>
<clipPath id="clip0_211_1038">
<rect width="28.6829" height="28" fill="white" transform="translate(195.01 22.2715)"/>
</clipPath>
<clipPath id="clip1_211_1038">
<rect width="46.439" height="28" fill="white" transform="translate(436.997 22.2715)"/>
</clipPath>
</defs>
</svg>
